<svg xmlns="http://www.w3.org/2000/svg" width="52" height="36" viewBox="0 0 52 36">
    <g fill="none" fill-rule="evenodd">
        <path d="M-14-22h80v80h-80z"/>
        <path fill="#4590EB" d="M50 36H2a2 2 0 0 1-2-2V2a2 2 0 0 1 2-2h48a2 2 0 0 1 2 2v32a2 2 0 0 1-2 2"/>
        <path fill="#A2C7F5" d="M52 6H0V2a2 2 0 0 1 2-2h48a2 2 0 0 1 2 2v4z"/>
        <path fill="#D1E3FA" d="M12 21.613c-2.2 0-4-1.8-4-4v-1c0-2.2 1.8-4 4-4s4 1.8 4 4v1c0 2.2-1.8 4-4 4M14 23.613h-4c-2.8 0-5 2.2-5 5h14c0-2.8-2.2-5-5-5M45.383 16H24.617c-.89 0-1.617-.675-1.617-1.5s.727-1.5 1.617-1.5h20.766c.89 0 1.617.675 1.617 1.5s-.727 1.5-1.617 1.5M24.188 23C23.535 23 23 22.55 23 22s.535-1 1.188-1h9.25c.653 0 1.187.45 1.187 1s-.534 1-1.187 1h-9.25zM33.438 28h-9.25C23.535 28 23 27.55 23 27s.535-1 1.188-1h9.25c.653 0 1.187.45 1.187 1s-.534 1-1.187 1M46.017 28h-6.034c-.54 0-.983-.374-.983-.831V20.83c0-.457.442-.831.983-.831h6.034c.54 0 .983.374.983.831v6.338c0 .457-.442.831-.983.831"/>
    </g>
</svg>
