<svg xmlns="http://www.w3.org/2000/svg" width="64" height="64" viewBox="0 0 64 64">
    <g fill="none" fill-rule="evenodd">
        <path fill="#1774E6" d="M64 32c0 17.673-14.327 32-32 32C14.327 64 0 49.673 0 32h64z"/>
        <path fill="#49DEF2" d="M53.333 32.002c0 11.782-9.55 21.333-21.333 21.333-11.782 0-21.333-9.55-21.333-21.333C10.667 20.219 20.217 0 32 0c11.782 0 21.333 20.22 21.333 32.002"/>
        <path fill="#FFF" d="M42.667 32c0 5.891-4.776 10.667-10.667 10.667S21.333 37.89 21.333 32 26.11 21.333 32 21.333c5.89 0 10.667 4.776 10.667 10.667"/>
    </g>
</svg>
