<svg xmlns="http://www.w3.org/2000/svg" xmlns:xlink="http://www.w3.org/1999/xlink" width="24" height="24" viewBox="0 0 24 24">
    <defs>
        <path id="a" d="M16.526 8.004c.834 4.861-2.178 9.715-8.026 9.715-4.7 0-8.5-3.801-8.5-8.5 0-4.7 3.8-8.5 8.5-8.5 2.295 0 4.214.838 5.695 2.222l-2.307 2.222c-.632-.607-1.737-1.311-3.388-1.311-2.902 0-5.27 2.404-5.27 5.367s2.368 5.367 5.27 5.367c3.297 0 4.569-2.316 4.801-3.586H9V8l7.526.004zM24 8v2h-2v2h-2v-2h-2V8h2V6h2v2h2z"/>
    </defs>
    <use fill="#DD4B39" fill-rule="nonzero" transform="translate(0 3)" xlink:href="#a"/>
</svg>
