<?xml version="1.0" encoding="UTF-8"?>
<svg width="16px" height="16px" viewBox="0 0 16 16" version="1.1" xmlns="http://www.w3.org/2000/svg" xmlns:xlink="http://www.w3.org/1999/xlink">
    <!-- Generator: Sketch 52 (66869) - http://www.bohemiancoding.com/sketch -->
    <title>icon/mail</title>
    <desc>Created with Sketch.</desc>
    <defs>
        <path d="M15,1 C15.6,1 16,1.4 16,2 L16,3.5 L8,7.9 L0,3.4 L0,2 C0,1.4 0.4,1 1,1 L15,1 Z M7.5,9.9 C7.78,10.04 8.22,10.04 8.5,9.9 L16,5.7 L16,14 C16,14.6 15.6,15 15,15 L1,15 C0.4,15 0,14.6 0,14 L0,5.7 L7.5,9.9 Z" id="path-1"></path>
    </defs>
    <g id="icon/mail" stroke="none" stroke-width="1" fill="none" fill-rule="evenodd">
        <mask id="mask-2" fill="white">
            <use xlink:href="#path-1"></use>
        </mask>
        <use id="Combined-Shape" fill="#111111" fill-rule="nonzero" xlink:href="#path-1"></use>
        <g id="color/wireframe/1" mask="url(#mask-2)" fill="#262626">
            <rect x="0" y="0" width="16" height="16"></rect>
        </g>
    </g>
</svg>