<?xml version="1.0" encoding="UTF-8"?>
<svg width="16px" height="16px" viewBox="0 0 16 16" version="1.1" xmlns="http://www.w3.org/2000/svg" xmlns:xlink="http://www.w3.org/1999/xlink">
    <!-- Generator: Sketch 52 (66869) - http://www.bohemiancoding.com/sketch -->
    <title>icon/multiple</title>
    <desc>Created with Sketch.</desc>
    <defs>
        <path d="M4.5,8 C4.5,8.82842712 3.82842712,9.5 3,9.5 C2.17157288,9.5 1.5,8.82842712 1.5,8 C1.5,7.17157288 2.17157288,6.5 3,6.5 C3.82842712,6.5 4.5,7.17157288 4.5,8 Z M9.5,8 C9.5,8.82842712 8.82842712,9.5 8,9.5 C7.17157288,9.5 6.5,8.82842712 6.5,8 C6.5,7.17157288 7.17157288,6.5 8,6.5 C8.82842712,6.5 9.5,7.17157288 9.5,8 Z M14.5,8 C14.5,8.82842712 13.8284271,9.5 13,9.5 C12.1715729,9.5 11.5,8.82842712 11.5,8 C11.5,7.17157288 12.1715729,6.5 13,6.5 C13.8284271,6.5 14.5,7.17157288 14.5,8 Z M4.5,3 C4.5,3.82842712 3.82842712,4.5 3,4.5 C2.17157288,4.5 1.5,3.82842712 1.5,3 C1.5,2.17157288 2.17157288,1.5 3,1.5 C3.82842712,1.5 4.5,2.17157288 4.5,3 Z M9.5,3 C9.5,3.82842712 8.82842712,4.5 8,4.5 C7.17157288,4.5 6.5,3.82842712 6.5,3 C6.5,2.17157288 7.17157288,1.5 8,1.5 C8.82842712,1.5 9.5,2.17157288 9.5,3 Z M14.5,3 C14.5,3.82842712 13.8284271,4.5 13,4.5 C12.1715729,4.5 11.5,3.82842712 11.5,3 C11.5,2.17157288 12.1715729,1.5 13,1.5 C13.8284271,1.5 14.5,2.17157288 14.5,3 Z M4.5,13 C4.5,13.8284271 3.82842712,14.5 3,14.5 C2.17157288,14.5 1.5,13.8284271 1.5,13 C1.5,12.1715729 2.17157288,11.5 3,11.5 C3.82842712,11.5 4.5,12.1715729 4.5,13 Z M9.5,13 C9.5,13.8284271 8.82842712,14.5 8,14.5 C7.17157288,14.5 6.5,13.8284271 6.5,13 C6.5,12.1715729 7.17157288,11.5 8,11.5 C8.82842712,11.5 9.5,12.1715729 9.5,13 Z M14.5,13 C14.5,13.8284271 13.8284271,14.5 13,14.5 C12.1715729,14.5 11.5,13.8284271 11.5,13 C11.5,12.1715729 12.1715729,11.5 13,11.5 C13.8284271,11.5 14.5,12.1715729 14.5,13 Z" id="path-1"></path>
    </defs>
    <g id="icon/multiple" stroke="none" stroke-width="1" fill="none" fill-rule="evenodd">
        <mask id="mask-2" fill="white">
            <use xlink:href="#path-1"></use>
        </mask>
        <use id="Combined-Shape" fill="#262626" fill-rule="nonzero" xlink:href="#path-1"></use>
        <g id="color/wireframe/1" mask="url(#mask-2)" fill="#262626">
            <rect x="0" y="0" width="16" height="16"></rect>
        </g>
    </g>
</svg>