<?xml version="1.0" encoding="UTF-8"?>
<svg width="16px" height="16px" viewBox="0 0 16 16" version="1.1" xmlns="http://www.w3.org/2000/svg" xmlns:xlink="http://www.w3.org/1999/xlink">
    <!-- Generator: Sketch 52 (66869) - http://www.bohemiancoding.com/sketch -->
    <title>icon/messenger</title>
    <desc>Created with Sketch.</desc>
    <defs>
        <path d="M15,0 C15.6,0 16,0.4 16,1 L16,12 C16,12.6 15.6,13 15,13 L11.4,13 L8.7,15.7 C8.5,15.9 8.3,16 8,16 C7.7,16 7.5,15.9 7.3,15.7 L4.6,13 L1,13 C0.4,13 0,12.6 0,12 L0,1 C0,0.4 0.4,0 1,0 L15,0 Z M4,8 C4.55228475,8 5,7.55228475 5,7 C5,6.44771525 4.55228475,6 4,6 C3.44771525,6 3,6.44771525 3,7 C3,7.55228475 3.44771525,8 4,8 Z M8,8 C8.55228475,8 9,7.55228475 9,7 C9,6.44771525 8.55228475,6 8,6 C7.44771525,6 7,6.44771525 7,7 C7,7.55228475 7.44771525,8 8,8 Z M12,8 C12.5522847,8 13,7.55228475 13,7 C13,6.44771525 12.5522847,6 12,6 C11.4477153,6 11,6.44771525 11,7 C11,7.55228475 11.4477153,8 12,8 Z" id="path-1"></path>
    </defs>
    <g id="icon/messenger" stroke="none" stroke-width="1" fill="none" fill-rule="evenodd">
        <mask id="mask-2" fill="white">
            <use xlink:href="#path-1"></use>
        </mask>
        <use id="Shape" fill="#111111" fill-rule="nonzero" xlink:href="#path-1"></use>
        <g id="color/wireframe/1" mask="url(#mask-2)" fill="#262626">
            <rect x="0" y="0" width="16" height="16"></rect>
        </g>
    </g>
</svg>