<?xml version="1.0" encoding="UTF-8"?>
<svg width="16px" height="16px" viewBox="0 0 16 16" version="1.1" xmlns="http://www.w3.org/2000/svg" xmlns:xlink="http://www.w3.org/1999/xlink">
    <!-- Generator: Sketch 52 (66869) - http://www.bohemiancoding.com/sketch -->
    <title>icon/search</title>
    <desc>Created with Sketch.</desc>
    <defs>
        <path d="M12.0434783,10.826087 C12.826087,9.7826087 13.2608696,8.56521739 13.2608696,7.17391304 C13.2608696,3.7826087 10.5652174,1 7.17391304,1 C3.7826087,1 1,3.7826087 1,7.17391304 C1,10.5652174 3.7826087,13.3478261 7.17391304,13.3478261 C8.56521739,13.3478261 9.86956522,12.9130435 10.826087,12.1304348 L13.4347826,14.7391304 C13.6086957,14.9130435 13.8695652,15 14.0434783,15 C14.2173913,15 14.4782609,14.9130435 14.6521739,14.7391304 C15,14.3913043 15,13.8695652 14.6521739,13.5217391 L12.0434783,10.826087 Z M7.17391304,11.5217391 C4.73913043,11.5217391 2.73913043,9.60869565 2.73913043,7.17391304 C2.73913043,4.73913043 4.73913043,2.73913043 7.17391304,2.73913043 C9.60869565,2.73913043 11.6086957,4.73913043 11.6086957,7.17391304 C11.6086957,9.60869565 9.60869565,11.5217391 7.17391304,11.5217391 Z" id="path-1"></path>
    </defs>
    <g id="icon/search" stroke="none" stroke-width="1" fill="none" fill-rule="evenodd">
        <mask id="mask-2" fill="white">
            <use xlink:href="#path-1"></use>
        </mask>
        <use id="Shape" fill="#111111" fill-rule="nonzero" xlink:href="#path-1"></use>
        <g id="color/wireframe/1" mask="url(#mask-2)" fill="#262626">
            <rect x="0" y="0" width="16" height="16"></rect>
        </g>
    </g>
</svg>