<?xml version="1.0" encoding="UTF-8"?>
<svg width="16px" height="16px" viewBox="0 0 16 16" version="1.1" xmlns="http://www.w3.org/2000/svg" xmlns:xlink="http://www.w3.org/1999/xlink">
    <!-- Generator: Sketch 52 (66869) - http://www.bohemiancoding.com/sketch -->
    <title>icon/project</title>
    <desc>Created with Sketch.</desc>
    <defs>
        <path d="M16,10 L16,5 C16,4.4 15.6,4 15,4 L12,4 L12,1 C12,0.4 11.6,0 11,0 L5,0 C4.4,0 4,0.4 4,1 L4,4 L1,4 C0.4,4 0,4.4 0,5 L0,10 C0,10.6 0.4,11 1,11 L15,11 C15.6,11 16,10.6 16,10 Z M6,2 L10,2 L10,4 L6,4 L6,2 Z M1,13 L15,13 L15,15 C15,15.6 14.6,16 14,16 L2,16 C1.4,16 1,15.6 1,15 L1,13 Z" id="path-1"></path>
    </defs>
    <g id="icon/project" stroke="none" stroke-width="1" fill="none" fill-rule="evenodd">
        <mask id="mask-2" fill="white">
            <use xlink:href="#path-1"></use>
        </mask>
        <use id="Combined-Shape" fill="#111111" fill-rule="nonzero" xlink:href="#path-1"></use>
        <g id="color/wireframe/1" mask="url(#mask-2)" fill="#262626">
            <rect x="0" y="0" width="16" height="16"></rect>
        </g>
    </g>
</svg>