<?xml version="1.0" encoding="UTF-8"?>
<svg width="16px" height="16px" viewBox="0 0 16 16" version="1.1" xmlns="http://www.w3.org/2000/svg" xmlns:xlink="http://www.w3.org/1999/xlink">
    <!-- Generator: Sketch 52 (66869) - http://www.bohemiancoding.com/sketch -->
    <title>icon/cancel-2</title>
    <desc>Created with Sketch.</desc>
    <defs>
        <path d="M11.6804059,2.785338 L8,6.55337262 L4.31959409,2.785338 C3.90090536,2.35668049 3.21399551,2.3485992 2.785338,2.76728793 C2.7822944,2.77026076 2.77926831,2.77325146 2.77625988,2.77625988 L2.77625988,2.77625988 C2.35255744,3.19996232 2.35255744,3.88691971 2.77625988,4.31062215 C2.77926831,4.31363057 2.7822944,4.31662127 2.785338,4.31959409 L6.55337262,8 L2.785338,11.6804059 C2.35668049,12.0990946 2.3485992,12.7860045 2.76728793,13.214662 C2.77026076,13.2177056 2.77325146,13.2207317 2.77625988,13.2237401 L2.77625988,13.2237401 C3.19996232,13.6474426 3.88691971,13.6474426 4.31062215,13.2237401 C4.31363057,13.2207317 4.31662127,13.2177056 4.31959409,13.214662 L8,9.44662738 L11.6804059,13.214662 C12.0990946,13.6433195 12.7860045,13.6514008 13.214662,13.2327121 C13.2177056,13.2297392 13.2207317,13.2267485 13.2237401,13.2237401 L13.2237401,13.2237401 C13.6474426,12.8000377 13.6474426,12.1130803 13.2237401,11.6893779 C13.2207317,11.6863694 13.2177056,11.6833787 13.214662,11.6804059 L9.44662738,8 L13.214662,4.31959409 C13.6433195,3.90090536 13.6514008,3.21399551 13.2327121,2.785338 C13.2297392,2.7822944 13.2267485,2.77926831 13.2237401,2.77625988 L13.2237401,2.77625988 C12.8000377,2.35255744 12.1130803,2.35255744 11.6893779,2.77625988 C11.6863694,2.77926831 11.6833787,2.7822944 11.6804059,2.785338 Z" id="path-1"></path>
    </defs>
    <g id="icon/cancel-2" stroke="none" stroke-width="1" fill="none" fill-rule="evenodd">
        <mask id="mask-2" fill="white">
            <use xlink:href="#path-1"></use>
        </mask>
        <use id="Shape" fill="#262626" fill-rule="nonzero" xlink:href="#path-1"></use>
        <g id="color/wireframe/1" mask="url(#mask-2)" fill="#262626">
            <rect x="0" y="0" width="16" height="16"></rect>
        </g>
    </g>
</svg>