<svg xmlns="http://www.w3.org/2000/svg" width="32" height="32" viewBox="0 0 32 32">
    <g fill="none" fill-rule="evenodd">
        <path fill="#2E3033" fill-rule="nonzero" d="M0 16C0 7.163 7.163 0 16 0s16 7.163 16 16-7.163 16-16 16S0 24.837 0 16zm24.177-3.95a2.166 2.166 0 0 0-1.51-1.55c-1.33-.367-6.667-.367-6.667-.367s-5.337 0-6.668.367a2.166 2.166 0 0 0-1.51 1.55c-.355 1.365-.355 4.217-.355 4.217s0 2.85.356 4.217a2.167 2.167 0 0 0 1.51 1.55C10.662 22.4 16 22.4 16 22.4s5.337 0 6.668-.366a2.169 2.169 0 0 0 1.51-1.55c.355-1.366.355-4.217.355-4.217s0-2.852-.356-4.218zM14.4 19.2v-5.333l4.267 2.666L14.4 19.2z"/>
    </g>
</svg>
