<svg xmlns="http://www.w3.org/2000/svg" xmlns:xlink="http://www.w3.org/1999/xlink" width="24" height="24" viewBox="0 0 24 24">
    <defs>
        <path id="a" d="M22.6 5.34c-.81.36-1.62.63-2.52.72.9-.54 1.62-1.44 1.98-2.43-.9.54-1.8.9-2.79 1.08-.81-.9-1.98-1.44-3.24-1.44-2.43 0-4.41 1.98-4.41 4.41 0 .36 0 .72.09.99-3.78-.18-7.02-1.98-9.18-4.68-.45.72-.63 1.44-.63 2.25 0 1.53.81 2.88 1.98 3.69-.72 0-1.44-.18-1.98-.54v.09c0 2.16 1.53 3.96 3.51 4.32-.36.09-.72.18-1.17.18-.27 0-.54 0-.81-.09.54 1.8 2.16 3.06 4.14 3.06-1.53 1.17-3.42 1.89-5.49 1.89-.36 0-.72 0-1.08-.09 1.98 1.26 4.32 1.98 6.75 1.98 8.19 0 12.6-6.75 12.6-12.6v-.54c.9-.63 1.62-1.44 2.25-2.25z"/>
    </defs>
    <g fill="none" fill-rule="evenodd">
        <mask id="b" fill="#fff">
            <use xlink:href="#a"/>
        </mask>
        <g fill="#fff" mask="url(#b)">
            <path d="M0 24h24V0H0z"/>
        </g>
    </g>
</svg>
