<svg xmlns="http://www.w3.org/2000/svg" xmlns:xlink="http://www.w3.org/1999/xlink" width="16" height="16" viewBox="0 0 16 16">
    <defs>
        <path id="a" d="M8 0C3.589 0 0 3.589 0 8s3.589 8 8 8 8-3.589 8-8-3.589-8-8-8zM5.333 6.667C5.333 5.194 6.563 4 8 4c1.437 0 2.667 1.194 2.667 2.667v.666C10.667 8.806 9.437 10 8 10c-1.437 0-2.667-1.194-2.667-2.667v-.666zm2.667 8a6.637 6.637 0 0 1-4.267-1.551 3.32 3.32 0 0 1 2.934-1.783h2.666a3.32 3.32 0 0 1 2.934 1.783A6.637 6.637 0 0 1 8 14.666z"/>
    </defs>
    <g fill="none" fill-rule="evenodd">
        <mask id="b" fill="#fff">
            <use xlink:href="#a"/>
        </mask>
        <g fill="#9BA3AD" mask="url(#b)">
            <path d="M0 16h16V0H0z"/>
        </g>
    </g>
</svg>
