<svg xmlns="http://www.w3.org/2000/svg" xmlns:xlink="http://www.w3.org/1999/xlink" width="24" height="24" viewBox="0 0 24 24">
    <defs>
        <path id="a" d="M14.1 3.45c-.696.893-1.895 1.585-3.053 1.549-.211-1.152.332-2.336.99-3.135.725-.88 1.965-1.555 3.027-1.628.179 1.203-.314 2.38-.964 3.214zm6.254 13.037l.997.377-.438.97c-.517 1.144-.774 1.671-1.438 2.678-1.124 1.713-2.538 3.466-4.499 3.484-1.627.011-1.847-.8-3.589-.882-1.595.01-1.955.886-3.598.886H7.75c-2.007-.018-3.424-1.785-4.435-3.323C.764 16.795.256 11.91 2.107 9.061c1.24-1.91 3.247-3.098 5.237-3.098 1.03 0 1.832.286 2.54.538.54.192 1.006.358 1.478.358.414 0 .791-.142 1.269-.323.677-.256 1.52-.574 2.735-.574 1.753 0 3.549.934 4.804 2.497l.747.93-1.046.573c-1.258.689-1.95 1.943-1.851 3.355.101 1.449.996 2.664 2.334 3.17z"/>
    </defs>
    <g fill="none" fill-rule="evenodd" transform="translate(1)">
        <mask id="b" fill="#fff">
            <use xlink:href="#a"/>
        </mask>
        <g fill="#fff" mask="url(#b)">
            <path d="M-1 24h24V0H-1z"/>
        </g>
    </g>
</svg>
