<?xml version="1.0" encoding="UTF-8"?>
<svg width="32px" height="32px" viewBox="0 0 32 32" version="1.1" xmlns="http://www.w3.org/2000/svg" xmlns:xlink="http://www.w3.org/1999/xlink">
    <!-- Generator: Sketch 53.1 (72631) - https://sketchapp.com -->
    <title>Combined-Shape</title>
    <desc>Created with Sketch.</desc>
    <g id="Landing-Page" stroke="none" stroke-width="1" fill="none" fill-rule="evenodd">
        <g transform="translate(-1259.000000, -2624.000000)" fill="#2E3033" fill-rule="nonzero" id="Combined-Shape">
            <path d="M1259,2640 C1259,2631.1632 1266.1632,2624 1275,2624 C1283.8368,2624 1291,2631.1632 1291,2640 C1291,2648.8368 1283.8368,2656 1275,2656 C1266.1632,2656 1259,2648.8368 1259,2640 Z M1275,2632.6215 C1277.403,2632.6215 1277.68763,2632.6305 1278.63675,2632.674 C1279.66088,2632.72087 1280.6115,2632.926 1281.34275,2633.65725 C1282.074,2634.3885 1282.27913,2635.33912 1282.326,2636.36325 C1282.36912,2637.31237 1282.3785,2637.597 1282.3785,2640 C1282.3785,2642.403 1282.3695,2642.68763 1282.326,2643.63675 C1282.27913,2644.66088 1282.074,2645.6115 1281.34275,2646.34275 C1280.6115,2647.074 1279.66088,2647.27913 1278.63675,2647.326 C1277.688,2647.36913 1277.40338,2647.3785 1275,2647.3785 C1272.59662,2647.3785 1272.312,2647.3695 1271.36325,2647.326 C1270.33912,2647.27913 1269.3885,2647.074 1268.65725,2646.34275 C1267.926,2645.6115 1267.72087,2644.66088 1267.674,2643.63675 C1267.63088,2642.68763 1267.6215,2642.403 1267.6215,2640 C1267.6215,2637.597 1267.6305,2637.31237 1267.674,2636.36325 C1267.72087,2635.33912 1267.926,2634.3885 1268.65725,2633.65725 C1269.3885,2632.926 1270.33912,2632.72087 1271.36325,2632.674 C1272.31237,2632.63087 1272.597,2632.6215 1275,2632.6215 Z M1275,2631 C1272.55575,2631 1272.24938,2631.0105 1271.28938,2631.054 C1269.82687,2631.12075 1268.54212,2631.47887 1267.5105,2632.5105 C1266.47925,2633.54175 1266.12075,2634.82613 1266.054,2636.28937 C1266.0105,2637.24937 1266,2637.55575 1266,2640 C1266,2642.44425 1266.0105,2642.75063 1266.054,2643.71063 C1266.12075,2645.17312 1266.47888,2646.45788 1267.5105,2647.4895 C1268.54175,2648.52075 1269.82613,2648.87925 1271.28938,2648.946 C1272.24938,2648.9895 1272.55575,2649 1275,2649 C1277.44425,2649 1277.75062,2648.9895 1278.71062,2648.946 C1280.17275,2648.87925 1281.45788,2648.52113 1282.4895,2647.4895 C1283.52075,2646.45825 1283.87925,2645.17387 1283.946,2643.71063 C1283.9895,2642.75063 1284,2642.44425 1284,2640 C1284,2637.55575 1283.9895,2637.24937 1283.946,2636.28937 C1283.87925,2634.82688 1283.52112,2633.54212 1282.4895,2632.5105 C1281.45825,2631.47925 1280.17387,2631.12075 1278.71062,2631.054 C1277.75062,2631.0105 1277.44425,2631 1275,2631 Z M1275,2635.3785 C1272.44737,2635.3785 1270.3785,2637.44775 1270.3785,2640 C1270.3785,2642.55225 1272.44737,2644.6215 1275,2644.6215 C1277.55263,2644.6215 1279.6215,2642.55262 1279.6215,2640 C1279.6215,2637.44738 1277.55263,2635.3785 1275,2635.3785 Z M1275,2643 C1273.34325,2643 1272,2641.65675 1272,2640 C1272,2638.34325 1273.34325,2637 1275,2637 C1276.65675,2637 1278,2638.34325 1278,2640 C1278,2641.65675 1276.65675,2643 1275,2643 Z M1279.80413,2636.27588 C1280.40059,2636.27588 1280.88413,2635.79234 1280.88413,2635.19588 C1280.88413,2634.59941 1280.40059,2634.11587 1279.80413,2634.11587 C1279.20766,2634.11587 1278.72412,2634.59941 1278.72412,2635.19588 C1278.72412,2635.79234 1279.20766,2636.27588 1279.80413,2636.27588 Z"></path>
        </g>
    </g>
</svg>