<?xml version="1.0" encoding="UTF-8"?>
<svg width="16px" height="16px" viewBox="0 0 16 16" version="1.1" xmlns="http://www.w3.org/2000/svg" xmlns:xlink="http://www.w3.org/1999/xlink">
    <!-- Generator: Sketch 52 (66869) - http://www.bohemiancoding.com/sketch -->
    <title>icon/trash</title>
    <desc>Created with Sketch.</desc>
    <defs>
        <path d="M2,6 L14,6 L14,14 C14,15.1 13.1,16 12,16 L4,16 C2.9,16 2,15.1 2,14 L2,6 Z M12,3 L16,3 L16,5 L0,5 L0,3 L4,3 L4,1 C4,0.4 4.4,0 5,0 L11,0 C11.6,0 12,0.4 12,1 L12,3 Z M10,3 L10,2 L6,2 L6,3 L10,3 Z" id="path-1"></path>
    </defs>
    <g id="icon/trash" stroke="none" stroke-width="1" fill="none" fill-rule="evenodd">
        <mask id="mask-2" fill="white">
            <use xlink:href="#path-1"></use>
        </mask>
        <use id="Combined-Shape" fill="#2e3033" fill-rule="nonzero" xlink:href="#path-1"></use>
        <g id="color/wireframe/1" mask="url(#mask-2)" fill="#2e3033">
            <rect x="0" y="0" width="16" height="16"></rect>
        </g>
    </g>
</svg>