<svg xmlns="http://www.w3.org/2000/svg" width="32" height="32" viewBox="0 0 32 32">
    <g fill="none" fill-rule="evenodd">
        <path fill="#2E3033" fill-rule="nonzero" d="M0 16C0 7.163 7.163 0 16 0s16 7.163 16 16-7.163 16-16 16S0 24.837 0 16zm15.521-2.995l.033.553-.56-.067c-2.036-.26-3.815-1.142-5.326-2.622l-.739-.734-.19.542c-.403 1.21-.146 2.486.694 3.345.448.475.346.542-.426.26-.268-.091-.504-.158-.526-.125-.078.08.19 1.108.403 1.514.29.566.885 1.119 1.534 1.447l.548.26-.65.01c-.626 0-.648.012-.581.25.224.734 1.108 1.513 2.093 1.853l.693.236-.604.362a6.301 6.301 0 0 1-3 .836c-.503.012-.917.057-.917.091 0 .113 1.365.746 2.16.994 2.384.735 5.215.418 7.342-.836 1.51-.892 3.022-2.667 3.727-4.384.38-.915.76-2.587.76-3.39 0-.52.034-.587.661-1.209.37-.361.716-.757.783-.87.112-.214.101-.214-.47-.022-.951.339-1.085.294-.615-.215.346-.361.76-1.017.76-1.209 0-.033-.167.023-.358.124-.2.114-.649.283-.984.384l-.604.192-.55-.372c-.301-.203-.727-.43-.95-.497-.57-.158-1.444-.136-1.96.045-1.398.508-2.282 1.819-2.18 3.254z"/>
    </g>
</svg>
