<svg xmlns="http://www.w3.org/2000/svg" xmlns:xlink="http://www.w3.org/1999/xlink" width="16" height="16" viewBox="0 0 16 16">
    <defs>
        <path id="a" d="M3.333 8.667c.368 0 .667.298.667.666V14a.667.667 0 0 1-.667.667H.667A.667.667 0 0 1 0 14V9.333c0-.368.299-.666.667-.666h2.666zm6-7.334c.368 0 .667.299.667.667v12a.667.667 0 0 1-.667.667H6.667A.667.667 0 0 1 6 14V2c0-.368.299-.667.667-.667h2.666zm6 4c.368 0 .667.299.667.667v8a.667.667 0 0 1-.667.667h-2.666A.667.667 0 0 1 12 14V6c0-.368.299-.667.667-.667h2.666z"/>
    </defs>
    <g fill="none" fill-rule="evenodd">
        <mask id="b" fill="#fff">
            <use xlink:href="#a"/>
        </mask>
        <g fill="#9BA3AD" mask="url(#b)">
            <path d="M0 16h16V0H0z"/>
        </g>
    </g>
</svg>
