<?xml version="1.0" encoding="UTF-8"?>
<svg width="16px" height="16px" viewBox="0 0 16 16" version="1.1" xmlns="http://www.w3.org/2000/svg" xmlns:xlink="http://www.w3.org/1999/xlink">
    <!-- Generator: Sketch 52 (66869) - http://www.bohemiancoding.com/sketch -->
    <title>icon/document</title>
    <desc>Created with Sketch.</desc>
    <defs>
        <path d="M13.375,1 L2.875,1 C2.35,1 2,1.35 2,1.875 L2,14.125 C2,14.65 2.35,15 2.875,15 L13.375,15 C13.9,15 14.25,14.65 14.25,14.125 L14.25,1.875 C14.25,1.35 13.9,1 13.375,1 Z M8.125,12.375 L4.625,12.375 L4.625,10.625 L8.125,10.625 L8.125,12.375 Z M11.625,8.875 L4.625,8.875 L4.625,7.125 L11.625,7.125 L11.625,8.875 Z M11.625,5.375 L4.625,5.375 L4.625,3.625 L11.625,3.625 L11.625,5.375 Z" id="path-1"></path>
    </defs>
    <g id="icon/document" stroke="none" stroke-width="1" fill="none" fill-rule="evenodd">
        <mask id="mask-2" fill="white">
            <use xlink:href="#path-1"></use>
        </mask>
        <use id="Shape" fill="#111111" fill-rule="nonzero" xlink:href="#path-1"></use>
        <g id="color/wireframe/1" mask="url(#mask-2)" fill="#262626">
            <rect x="0" y="0" width="16" height="16"></rect>
        </g>
    </g>
</svg>