<?xml version="1.0" encoding="UTF-8"?>
<svg width="16px" height="16px" viewBox="0 0 16 16" version="1.1" xmlns="http://www.w3.org/2000/svg" xmlns:xlink="http://www.w3.org/1999/xlink">
    <!-- Generator: Sketch 52 (66869) - http://www.bohemiancoding.com/sketch -->
    <title>icon/checkbox-on</title>
    <desc>Created with Sketch.</desc>
    <defs>
        <path d="M2,0 L14,0 C15.1045695,-2.02906125e-16 16,0.8954305 16,2 L16,14 C16,15.1045695 15.1045695,16 14,16 L2,16 C0.8954305,16 1.3527075e-16,15.1045695 0,14 L0,2 C-1.3527075e-16,0.8954305 0.8954305,2.02906125e-16 2,0 Z M10.5490132,5.13500945 C10.8058204,4.77547938 11.3054605,4.69220603 11.6649906,4.94901322 C12.0245206,5.20582042 12.107794,5.70546049 11.8509868,6.06499055 L7.85098678,11.6649906 C7.56365078,12.067261 6.98387391,12.1152448 6.63431458,11.7656854 L4.23431458,9.36568542 C3.92189514,9.05326599 3.92189514,8.54673401 4.23431458,8.23431458 C4.54673401,7.92189514 5.05326599,7.92189514 5.36568542,8.23431458 L7.09791617,9.96654532 L10.5490132,5.13500945 Z" id="path-1"></path>
    </defs>
    <g id="icon/checkbox-on" stroke="none" stroke-width="1" fill="none" fill-rule="evenodd">
        <mask id="mask-2" fill="white">
            <use xlink:href="#path-1"></use>
        </mask>
        <g id="shape"></g>
        <g id="color/wireframe/1" mask="url(#mask-2)" fill="#262626">
            <rect x="0" y="0" width="16" height="16"></rect>
        </g>
    </g>
</svg>