<svg xmlns="http://www.w3.org/2000/svg" xmlns:xlink="http://www.w3.org/1999/xlink" width="16" height="16" viewBox="0 0 16 16">
    <defs>
        <path id="a" d="M8 0C3.6 0 0 3.6 0 8s3.6 8 8 8 8-3.6 8-8-3.6-8-8-8zm0 13c-.6 0-1-.4-1-1s.4-1 1-1 1 .4 1 1-.4 1-1 1zm1.5-4.6c-.5.3-.5.4-.5.6v1H7V9c0-1.3.8-1.9 1.4-2.3.5-.3.6-.4.6-.7 0-.6-.4-1-1-1-.4 0-.7.2-.9.5l-.5.9-1.7-1 .5-.9C5.9 3.6 6.9 3 8 3c1.7 0 3 1.3 3 3 0 1.4-.9 2-1.5 2.4z"/>
    </defs>
    <g fill="none" fill-rule="evenodd">
        <mask id="b" fill="#fff">
            <use xlink:href="#a"/>
        </mask>
        <g fill="#CDD1D6" mask="url(#b)">
            <path d="M0 16h16V0H0z"/>
        </g>
    </g>
</svg>
