<?xml version="1.0" encoding="UTF-8"?>
<svg width="16px" height="16px" viewBox="0 0 16 16" version="1.1" xmlns="http://www.w3.org/2000/svg" xmlns:xlink="http://www.w3.org/1999/xlink">
    <!-- Generator: Sketch 52 (66869) - http://www.bohemiancoding.com/sketch -->
    <title>icon/unlock</title>
    <desc>Created with Sketch.</desc>
    <defs>
        <path d="M1,15 C1,15.6 1.4,16 2,16 L14,16 C14.6,16 15,15.6 15,15 L15,6 C15,5.4 14.6,5 14,5 L12,5 L6,5 L6,4 C6,2.9 6.9,2 8,2 C8.6,2 9.1,2.2 9.5,2.7 L10.2,3.4 L11.7,2.1 L11,1.3 C10.2,0.5 9.1,0 8,0 C5.8,0 4,1.8 4,4 L4,5 L2,5 C1.4,5 1,5.4 1,6 L1,15 Z M8,8 C9.1,8 10,8.9 10,10 C10,10.7 9.6,11.4 9,11.7 L9,13 L7,13 L7,11.7 C6.4,11.4 6,10.7 6,10 C6,8.9 6.9,8 8,8 Z" id="path-1"></path>
    </defs>
    <g id="icon/unlock" stroke="none" stroke-width="1" fill="none" fill-rule="evenodd">
        <mask id="mask-2" fill="white">
            <use xlink:href="#path-1"></use>
        </mask>
        <use id="Shape" fill="#111111" fill-rule="nonzero" xlink:href="#path-1"></use>
        <g id="color/wireframe/1" mask="url(#mask-2)" fill="#262626">
            <rect x="0" y="0" width="16" height="16"></rect>
        </g>
    </g>
</svg>