<svg xmlns="http://www.w3.org/2000/svg" xmlns:xlink="http://www.w3.org/1999/xlink" width="44" height="44" viewBox="0 0 44 44">
    <defs>
        <rect id="a" width="44" height="44" rx="22"/>
    </defs>
    <g fill="none" fill-rule="evenodd">
        <use fill="#F7CA3D" fill-rule="nonzero" xlink:href="#a"/>
        <path fill="#FFF" d="M27.217 24.304a4.783 4.783 0 1 1 0-9.565 4.783 4.783 0 0 1 0 9.565zm-10.739 0h5.826a1 1 0 0 1 1 1v5.826a1 1 0 0 1-1 1h-5.826a1 1 0 0 1-1-1v-5.826a1 1 0 0 1 1-1zM16.348 13l4.348 7.826H12L16.348 13z"/>
    </g>
</svg>
