<svg xmlns="http://www.w3.org/2000/svg" xmlns:xlink="http://www.w3.org/1999/xlink" width="24" height="24" viewBox="0 0 24 24">
    <defs>
        <path id="a" d="M21.6 2.34c-.81.36-1.62.63-2.52.72.9-.54 1.62-1.44 1.98-2.43-.9.54-1.8.9-2.79 1.08-.81-.9-1.98-1.44-3.24-1.44-2.43 0-4.41 1.98-4.41 4.41 0 .36 0 .72.09.99C6.93 5.49 3.69 3.69 1.53.99 1.08 1.71.9 2.43.9 3.24c0 1.53.81 2.88 1.98 3.69-.72 0-1.44-.18-1.98-.54v.09c0 2.16 1.53 3.96 3.51 4.32-.36.09-.72.18-1.17.18-.27 0-.54 0-.81-.09.54 1.8 2.16 3.06 4.14 3.06-1.53 1.17-3.42 1.89-5.49 1.89-.36 0-.72 0-1.08-.09 1.98 1.26 4.32 1.98 6.75 1.98 8.19 0 12.6-6.75 12.6-12.6v-.54c.9-.63 1.62-1.44 2.25-2.25z"/>
    </defs>
    <use fill="#1DA1F2" fill-rule="nonzero" transform="translate(1 3)" xlink:href="#a"/>
</svg>
