<?xml version="1.0" encoding="UTF-8"?>
<svg width="16px" height="16px" viewBox="0 0 16 16" version="1.1" xmlns="http://www.w3.org/2000/svg" xmlns:xlink="http://www.w3.org/1999/xlink">
    <!-- Generator: Sketch 52 (66869) - http://www.bohemiancoding.com/sketch -->
    <title>icon/newsfeed</title>
    <desc>Created with Sketch.</desc>
    <defs>
        <path d="M0,6.54545455 L16,6.54545455 L16,14 C16,15.1045695 15.1045695,16 14,16 L2,16 C0.8954305,16 1.3527075e-16,15.1045695 0,14 L0,6.54545455 Z M1.45454545,0 L14.5454545,0 C15.3487778,-1.61486985e-16 16,0.651222182 16,1.45454545 L16,5.81818182 L0,5.81818182 L0,1.45454545 C-8.07434927e-17,0.651222182 0.651222182,1.61486985e-16 1.45454545,0 Z M2.90909091,4.36363636 C3.71241418,4.36363636 4.36363636,3.71241418 4.36363636,2.90909091 C4.36363636,2.10576764 3.71241418,1.45454545 2.90909091,1.45454545 C2.10576764,1.45454545 1.45454545,2.10576764 1.45454545,2.90909091 C1.45454545,3.71241418 2.10576764,4.36363636 2.90909091,4.36363636 Z M6.54545455,2.18181818 C6.14379291,2.18181818 5.81818182,2.50742927 5.81818182,2.90909091 C5.81818182,3.31075255 6.14379291,3.63636364 6.54545455,3.63636364 L13.8181818,3.63636364 C14.2198435,3.63636364 14.5454545,3.31075255 14.5454545,2.90909091 C14.5454545,2.50742927 14.2198435,2.18181818 13.8181818,2.18181818 L6.54545455,2.18181818 Z" id="path-1"></path>
    </defs>
    <g id="icon/newsfeed" stroke="none" stroke-width="1" fill="none" fill-rule="evenodd">
        <mask id="mask-2" fill="white">
            <use xlink:href="#path-1"></use>
        </mask>
        <g id="shape" fill-rule="nonzero"></g>
        <g id="color/wireframe/1" mask="url(#mask-2)" fill="#262626">
            <rect x="0" y="0" width="16" height="16"></rect>
        </g>
    </g>
</svg>