<?xml version="1.0" encoding="UTF-8"?>
<svg width="16px" height="16px" viewBox="0 0 16 16" version="1.1" xmlns="http://www.w3.org/2000/svg" xmlns:xlink="http://www.w3.org/1999/xlink">
    <!-- Generator: Sketch 52 (66869) - http://www.bohemiancoding.com/sketch -->
    <title>icon/link</title>
    <desc>Created with Sketch.</desc>
    <defs>
        <path d="M5.04444444,15.2222222 C3.97777778,15.2222222 3,14.7777778 2.2,14.0666667 C0.6,12.4666667 0.6,9.97777778 2.2,8.37777778 L2.82222222,7.75555556 L4.06666667,9 L3.44444444,9.62222222 C2.55555556,10.5111111 2.55555556,11.9333333 3.44444444,12.8222222 C4.33333333,13.7111111 5.75555556,13.7111111 6.64444444,12.8222222 L9.31111111,10.1555556 C10.2,9.26666667 10.2,7.84444444 9.31111111,6.95555556 L8.68888889,6.33333333 L9.93333333,5.08888889 L10.5555556,5.71111111 C12.1555556,7.31111111 12.1555556,9.8 10.5555556,11.4 L7.88888889,14.0666667 C7.17777778,14.7777778 6.11111111,15.2222222 5.04444444,15.2222222 Z M6.37777778,11.1333333 L5.75555556,10.5111111 C4.15555556,8.91111111 4.15555556,6.42222222 5.75555556,4.82222222 L8.42222222,2.15555556 C9.22222222,1.35555556 10.2,1 11.2666667,1 C12.3333333,1 13.3111111,1.44444444 14.1111111,2.15555556 C15.7111111,3.75555556 15.7111111,6.24444444 14.1111111,7.84444444 L13.4888889,8.46666667 L12.2444444,7.22222222 L12.8666667,6.6 C13.7555556,5.71111111 13.7555556,4.28888889 12.8666667,3.4 C11.9777778,2.51111111 10.5555556,2.51111111 9.66666667,3.4 L7,6.06666667 C6.11111111,6.95555556 6.11111111,8.37777778 7,9.26666667 L7.62222222,9.88888889 L6.37777778,11.1333333 Z" id="path-1"></path>
    </defs>
    <g id="icon/link" stroke="none" stroke-width="1" fill="none" fill-rule="evenodd">
        <mask id="mask-2" fill="white">
            <use xlink:href="#path-1"></use>
        </mask>
        <use id="Combined-Shape" fill="#111111" fill-rule="nonzero" xlink:href="#path-1"></use>
        <g id="color/wireframe/1" mask="url(#mask-2)" fill="#262626">
            <rect x="0" y="0" width="16" height="16"></rect>
        </g>
    </g>
</svg>