<?xml version="1.0" encoding="UTF-8"?>
<svg width="16px" height="16px" viewBox="0 0 16 16" version="1.1" xmlns="http://www.w3.org/2000/svg" xmlns:xlink="http://www.w3.org/1999/xlink">
    <!-- Generator: Sketch 52 (66869) - http://www.bohemiancoding.com/sketch -->
    <title>icon/media/pause</title>
    <desc>Created with Sketch.</desc>
    <defs>
        <path d="M5,1 C5.6,1 6,1.4 6,2 L6,14 C6,14.6 5.6,15 5,15 L2,15 C1.4,15 1,14.6 1,14 L1,2 C1,1.4 1.4,1 2,1 L5,1 Z M14,1 C14.6,1 15,1.4 15,2 L15,14 C15,14.6 14.6,15 14,15 L11,15 C10.4,15 10,14.6 10,14 L10,2 C10,1.4 10.4,1 11,1 L14,1 Z" id="path-1"></path>
    </defs>
    <g id="icon/media/pause" stroke="none" stroke-width="1" fill="none" fill-rule="evenodd">
        <mask id="mask-2" fill="white">
            <use xlink:href="#path-1"></use>
        </mask>
        <use id="Combined-Shape" fill="#111111" fill-rule="nonzero" xlink:href="#path-1"></use>
        <g id="color/wireframe/1" mask="url(#mask-2)" fill="#262626">
            <rect x="0" y="0" width="16" height="16"></rect>
        </g>
    </g>
</svg>