<?xml version="1.0" encoding="UTF-8"?>
<svg width="16px" height="16px" viewBox="0 0 16 16" version="1.1" xmlns="http://www.w3.org/2000/svg" xmlns:xlink="http://www.w3.org/1999/xlink">
    <!-- Generator: Sketch 52 (66869) - http://www.bohemiancoding.com/sketch -->
    <title>icon/archive</title>
    <desc>Created with Sketch.</desc>
    <defs>
        <path d="M15,7 L15,1 C15,0.4 14.6,0 14,0 L2,0 C1.4,0 1,0.4 1,1 L1,7 L15,7 Z M6,2 L10,2 L10,4 L6,4 L6,2 Z M1,9 L15,9 L15,15 C15,15.6 14.6,16 14,16 L2,16 C1.4,16 1,15.6 1,15 L1,9 Z M10,13 L10,11 L6,11 L6,13 L10,13 Z" id="path-1"></path>
    </defs>
    <g id="icon/archive" stroke="none" stroke-width="1" fill="none" fill-rule="evenodd">
        <mask id="mask-2" fill="white">
            <use xlink:href="#path-1"></use>
        </mask>
        <use id="Combined-Shape" fill="#111111" fill-rule="nonzero" xlink:href="#path-1"></use>
        <g id="color/wireframe/1" mask="url(#mask-2)" fill="#262626">
            <rect x="0" y="0" width="16" height="16"></rect>
        </g>
    </g>
</svg>