<svg xmlns="http://www.w3.org/2000/svg" width="380" height="280" viewBox="0 0 380 280">
    <defs>
        <filter id="a" width="140%" height="300%" x="-20%" y="-100%" filterUnits="objectBoundingBox">
            <feGaussianBlur in="SourceGraphic" stdDeviation="8"/>
        </filter>
        <linearGradient id="b" x1="50%" x2="50%" y1="0%" y2="100%">
            <stop offset="0%" stop-color="#EDF0F2"/>
            <stop offset="100%" stop-color="#C3CED9"/>
        </linearGradient>
        <linearGradient id="c" x1="50%" x2="50%" y1="1.4%" y2="100%">
            <stop offset="0%" stop-color="#6EB4FA"/>
            <stop offset="100%" stop-color="#006CD9"/>
        </linearGradient>
        <linearGradient id="d" x1="50%" x2="50%" y1="100%" y2="1.4%">
            <stop offset="0%" stop-color="#676C73"/>
            <stop offset="100%" stop-color="#3B3C3D"/>
        </linearGradient>
        <linearGradient id="e" x1=".7%" x2="99.3%" y1="50.7%" y2="50.7%">
            <stop offset="0%" stop-color="#676C73"/>
            <stop offset="100%" stop-color="#3B3C3D"/>
        </linearGradient>
        <linearGradient id="f" x1=".7%" x2="99.3%" y1="50.7%" y2="50.7%">
            <stop offset="0%" stop-color="#FFDF49"/>
            <stop offset="100%" stop-color="#FFC64C"/>
        </linearGradient>
        <linearGradient id="g" x1="50%" x2="50%" y1="1.4%" y2="100%">
            <stop offset="0%" stop-color="#FFDF49"/>
            <stop offset="100%" stop-color="#FFC64C"/>
        </linearGradient>
        <linearGradient id="h" x1="50%" x2="50%" y1="1.4%" y2="100%">
            <stop offset="0%" stop-color="#676C73"/>
            <stop offset="100%" stop-color="#3B3C3D"/>
        </linearGradient>
        <linearGradient id="i" x1="99.3%" x2=".7%" y1="50.7%" y2="50.7%">
            <stop offset="0%" stop-color="#676C73"/>
            <stop offset="100%" stop-color="#3B3C3D"/>
        </linearGradient>
    </defs>
    <g fill="none" fill-rule="evenodd">
        <path fill="#C3CED9" fill-rule="nonzero" d="M185.294 268C221.03 268 250 262.627 250 256s-28.97-12-64.706-12C149.558 244 130 249.373 130 256s19.558 12 55.294 12z" filter="url(#a)" opacity=".6" transform="matrix(1 0 0 -1 0 512)"/>
        <g fill="url(#b)" fill-rule="nonzero" transform="translate(88 112)">
            <path d="M0 32h204v12c0 55.228-44.772 100-100 100h-4C44.772 144 0 99.228 0 44V32z"/>
            <path d="M94 64c60.751 0 110-14.327 110-32 0-17.673-49.249-32-110-32S0 14.327 0 32c0 17.673 33.249 32 94 32z"/>
        </g>
        <path fill="url(#c)" d="M48.216 52.83c.68-.392 1.238-.073 1.241.706l.013 4.271.012 4.26c.002.78-.555 1.742-1.233 2.133l-9.895 5.715c-.68.39-1.238.073-1.24-.706l-.012-4.261-.012-4.271c-.002-.78.553-1.742 1.23-2.134l9.896-5.713z" transform="translate(154 74)"/>
        <path fill="url(#d)" d="M69.259 46.382l.033 11.37c.003 1.56-1.105 3.484-2.465 4.268L19.825 89.157c-1.36.783-2.476.148-2.48-1.412l-.033-11.372 19.79-11.426.013 4.261c.002.78.56 1.098 1.238.706l9.895-5.713c.68-.392 1.234-1.354 1.233-2.134l-.013-4.259 19.79-11.426z" transform="translate(154 74)"/>
        <path fill="url(#e)" d="M17.345 87.744l-.033-11.37-14.745-8.57.033 11.372c.002.582.158 1.035.423 1.333.09.1.19.183.3.248l14.744 8.567c-.445-.257-.72-.806-.722-1.58" transform="translate(154 74)"/>
        <path fill="url(#f)" d="M69.155 9.432c1.368-.79 2.474-.16 2.479 1.414l.089 31.258c.003 1.574-1.095 3.488-2.464 4.278L49.47 57.808l-.012-4.271c-.004-.78-.562-1.099-1.241-.706l-9.896 5.712c-.678.393-1.232 1.353-1.23 2.134l.012 4.272-19.789 11.424c-1.36.786-2.475.148-2.479-1.425l-.09-31.26c-.004-1.572 1.106-3.481 2.463-4.264L69.155 9.432z" transform="translate(154 74)"/>
        <path fill="url(#g)" d="M69.7 9.192a2 2 0 0 1 .402-.09c.014 0 .027-.003.039-.004.14-.01.272-.004.395.02l.021.006c.128.028.248.07.356.134L56.17.689l-.014-.008a1.01 1.01 0 0 0-.124-.06.666.666 0 0 0-.13-.045.762.762 0 0 0-.09-.02L55.793.55l-.028-.007a1.43 1.43 0 0 0-.312-.02c-.02.003-.038.006-.057.006l-.037.005c-.03.002-.06.004-.089.01-.071.01-.145.027-.218.044-.033.01-.064.025-.098.035-.03.009-.057.02-.088.032-.035.01-.07.02-.107.034-.115.048-.23.107-.35.175L2.464 30.856c-.263.152-.51.354-.75.58-.024.02-.05.034-.074.058-.034.032-.061.065-.093.098l-.083.087c-.032.035-.065.068-.095.103-.07.08-.136.162-.202.246-.02.026-.042.057-.064.083a.48.48 0 0 1-.033.05 3.523 3.523 0 0 0-.21.305 4.198 4.198 0 0 0-.129.209c-.003.005-.003.01-.007.014a.028.028 0 0 0-.007.012l-.102.181c-.035.07-.072.14-.105.211-.03.06-.06.122-.085.183-.002.005-.006.01-.007.016-.002.005-.006.01-.007.015a8.39 8.39 0 0 0-.091.222c-.028.077-.058.155-.084.233-.012.037-.02.075-.033.11-.005.02-.012.037-.017.054l-.026.086a6.12 6.12 0 0 0-.07.284c-.012.057-.018.113-.028.169l-.016.09c-.003.027-.01.055-.014.084a3.49 3.49 0 0 0-.031.483L.088 66.38c.002.783.28 1.334.725 1.594l14.745 8.568c-.446-.26-.723-.81-.725-1.593l-.087-31.26a3.526 3.526 0 0 1 .045-.567c.004-.03.01-.059.016-.088.03-.178.072-.36.124-.54l.016-.051c.059-.196.13-.39.216-.583a5.934 5.934 0 0 1 .298-.591l.009-.012a5.87 5.87 0 0 1 .737-1.01 3.87 3.87 0 0 0 .084-.087c.055-.057.113-.104.169-.156.237-.225.484-.428.748-.58L69.156 9.433a2.563 2.563 0 0 1 .544-.24" transform="translate(154 74)"/>
        <path fill="url(#e)" d="M45.778 14.326l-.02-7.11L43.3 5.787l.02 7.11c0 .386.14.661.362.79l2.456 1.428c-.221-.129-.36-.403-.36-.79" transform="translate(154 74)"/>
        <path fill="url(#h)" d="M45.419 2.145c-.004 0-.005-.002-.007-.003a.422.422 0 0 0-.063-.032l-.066-.022c-.023-.006-.045-.013-.07-.016a.519.519 0 0 0-.075-.009l-.083-.001c-.01.001-.021.003-.032.003l-.009.002c-.017.001-.034.001-.054.005a.868.868 0 0 0-.108.024 1.497 1.497 0 0 0-.324.138L24.75 13.654a2.039 2.039 0 0 0-.417.32l-.057.063-.021.02-.056.061c-.033.04-.068.079-.1.12a2.621 2.621 0 0 0-.151.219c-.023.033-.045.07-.066.103 0 .005-.004.01-.006.015-.001.002-.001.004-.003.005-.016.027-.033.054-.049.084l-.052.105c-.018.035-.033.07-.047.106a1.89 1.89 0 0 0-.047.11l-.042.118a3.526 3.526 0 0 0-.021.07l-.005.012-.012.044a1.877 1.877 0 0 0-.08.556l.024 8.532c0 .389.137.666.359.795l2.458 1.428c-.223-.13-.36-.405-.36-.795l-.024-8.53c0-.194.032-.398.093-.6l.003-.014a2.87 2.87 0 0 1 .663-1.137c.144-.153.303-.284.472-.383L46.984 3.66c.175-.1.339-.153.489-.166.001-.002.005-.002.008-.002a.681.681 0 0 1 .394.08L45.42 2.145z" transform="translate(154 74)"/>
        <path fill="url(#i)" d="M46.985 3.662c.69-.4 1.248-.08 1.252.7l.023 8.531c.001.78-.553 1.74-1.242 2.137-.68.394-1.238.075-1.24-.704l-.02-7.111-17.308 9.993.02 7.11c.003.78-.554 1.743-1.232 2.133-.69.4-1.236.073-1.24-.706l-.024-8.532c-.001-.78.543-1.735 1.231-2.132l19.78-11.419z" transform="translate(154 74)"/>
        <path fill="url(#b)" fill-rule="nonzero" d="M188 24h4c55.228 0 100 44.772 100 100v32c0 55.228-44.772 100-100 100h-4c-55.228 0-100-44.772-100-100v-32c0-55.228 44.772-100 100-100z" opacity=".2"/>
    </g>
</svg>
