<svg xmlns="http://www.w3.org/2000/svg" width="159" height="40" viewBox="0 0 159 40">
    <g fill="#FFF" fill-rule="evenodd">
        <path d="M22.588 12.25a1.672 1.672 0 0 1-2.38 0 6.809 6.809 0 0 0-4.866-2.033 6.808 6.808 0 0 0-4.867 2.033 6.928 6.928 0 0 0-2.014 4.909c0 .938-.755 1.7-1.684 1.7-.93 0-1.684-.762-1.684-1.7 0-2.762 1.066-5.358 3.002-7.311a10.137 10.137 0 0 1 7.247-3.029c2.736 0 5.31 1.076 7.246 3.029a1.709 1.709 0 0 1 0 2.402m0 12.22a10.135 10.135 0 0 1-7.246 3.028 10.136 10.136 0 0 1-7.247-3.028 1.71 1.71 0 0 1 0-2.403 1.674 1.674 0 0 1 2.38 0 6.805 6.805 0 0 0 4.867 2.034 6.806 6.806 0 0 0 4.865-2.034 1.674 1.674 0 0 1 2.38 0 1.71 1.71 0 0 1 0 2.403M15.342 1.68c8.473 0 15.342 6.931 15.342 15.479 0 8.548-6.87 15.478-15.342 15.478C6.869 32.637 0 25.707 0 17.159S6.869 1.68 15.34 1.68zm4.182 37.836H11.16c-1.456 0-2.637-1.19-2.637-2.66 0-1.47 1.18-2.66 2.637-2.66h8.363c1.456 0 2.636 1.19 2.636 2.66 0 1.47-1.18 2.66-2.636 2.66zM57.093 21.52a10.269 10.269 0 0 1-1.2 2.935 10.567 10.567 0 0 1-2.088 2.511 9.888 9.888 0 0 1-2.844 1.749 9.01 9.01 0 0 1-3.421.65 9.473 9.473 0 0 1-3.933-.83 10.502 10.502 0 0 1-3.243-2.264 10.923 10.923 0 0 1-2.223-3.34c-.548-1.27-.821-2.638-.821-4.102 0-1.464.273-2.83.821-4.102a10.94 10.94 0 0 1 2.223-3.34 10.516 10.516 0 0 1 3.243-2.264 9.474 9.474 0 0 1 3.933-.83c1.214 0 2.355.218 3.421.65a9.888 9.888 0 0 1 2.844 1.75c.83.732 1.525 1.569 2.089 2.51.562.942.961 1.92 1.2 2.937h-5.111a4.74 4.74 0 0 0-.977-1.435c-.356-.36-.815-.695-1.377-1.01-.564-.313-1.26-.47-2.09-.47-1.451 0-2.665.508-3.643 1.525-.978 1.016-1.467 2.375-1.467 4.079 0 1.703.49 3.064 1.467 4.08.978 1.016 2.192 1.524 3.644 1.524.83 0 1.525-.149 2.089-.448.562-.299 1.021-.628 1.377-.987.414-.417.74-.91.977-1.479h5.11zM62.425 18.83c0 1.703.49 3.063 1.466 4.08.978 1.016 2.193 1.523 3.645 1.523 1.45 0 2.665-.507 3.643-1.524.978-1.016 1.466-2.376 1.466-4.08 0-1.703-.488-3.063-1.466-4.08-.978-1.015-2.193-1.524-3.643-1.524-1.452 0-2.667.509-3.645 1.524-.977 1.017-1.466 2.377-1.466 4.08m15.33 0c0 1.465-.274 2.832-.822 4.103a10.933 10.933 0 0 1-2.222 3.34 10.51 10.51 0 0 1-3.243 2.263 9.461 9.461 0 0 1-3.932.83 9.463 9.463 0 0 1-3.934-.83 10.494 10.494 0 0 1-3.242-2.264 10.935 10.935 0 0 1-2.223-3.34c-.549-1.27-.822-2.637-.822-4.102 0-1.464.273-2.832.822-4.102a10.948 10.948 0 0 1 2.223-3.34 10.512 10.512 0 0 1 3.242-2.263 9.479 9.479 0 0 1 3.934-.83c1.391 0 2.703.277 3.932.83a10.528 10.528 0 0 1 3.243 2.263c.934.957 1.674 2.07 2.222 3.34s.822 2.638.822 4.102M91.53 8.72c.74.285 1.347.59 1.822.918.532.39.961.837 1.288 1.346a8.111 8.111 0 0 1 1.643-1.346c.534-.328 1.17-.633 1.911-.919.74-.283 1.556-.425 2.444-.425 2.222 0 4 .717 5.333 2.152 1.333 1.435 1.999 3.557 1.999 6.366V29.14h-5.11V17.26c0-1.255-.333-2.241-1-2.959-.666-.717-1.443-1.076-2.332-1.076-.89 0-1.667.36-2.333 1.076-.667.718-1 1.704-1 2.959v11.88h-5.11V17.26c0-1.255-.333-2.241-1-2.959-.667-.717-1.444-1.076-2.333-1.076-.888 0-1.666.36-2.333 1.076-.666.718-.999 1.704-.999 2.959v11.88h-5.11V8.518h3.777l.889 2.017c.415-.418.873-.79 1.377-1.12.414-.27.918-.523 1.51-.762.593-.24 1.26-.36 2-.36 1.037 0 1.926.143 2.667.426zM110.414 29.14h5.11V8.519h-5.11v20.623zm2.667-23.312c-.772 0-1.445-.291-2.022-.874-.578-.582-.867-1.262-.867-2.04 0-.777.29-1.457.867-2.04.577-.582 1.25-.874 2.022-.874.77 0 1.443.292 2.02.874.579.583.868 1.263.868 2.04 0 .778-.289 1.458-.867 2.04-.578.583-1.252.874-2.021.874zM122.189 18.38c0 .718.126 1.39.378 2.018.251.628.6 1.174 1.044 1.636.444.465.962.83 1.555 1.099.592.27 1.23.404 1.91.404.652 0 1.274-.135 1.867-.404a4.978 4.978 0 0 0 1.555-1.099c.444-.462.8-1.008 1.067-1.636.266-.627.4-1.3.4-2.017 0-.717-.134-1.39-.4-2.018a5.37 5.37 0 0 0-1.067-1.636 4.995 4.995 0 0 0-1.555-1.098 4.47 4.47 0 0 0-1.867-.404c-.68 0-1.318.135-1.91.404a4.971 4.971 0 0 0-2.599 2.734 5.363 5.363 0 0 0-.378 2.018m4.222-10.087c.888 0 1.687.12 2.399.359.71.239 1.317.493 1.821.762.563.329 1.081.702 1.556 1.12l.888-2.017h3.778v19.277c0 2.69-.853 4.857-2.556 6.5-1.704 1.644-4.11 2.466-7.22 2.466-1.896 0-3.43-.343-4.6-1.03-1.17-.689-2.096-1.465-2.777-2.332a10.33 10.33 0 0 1-1.733-3.362h5.11a3.5 3.5 0 0 0 .845 1.031c.325.239.74.464 1.244.673.504.208 1.14.314 1.91.314 1.452 0 2.593-.397 3.422-1.19.829-.79 1.244-1.814 1.244-3.07v-1.57c-.415.42-.889.794-1.422 1.122-.473.3-1.037.561-1.688.785-.652.224-1.393.336-2.221.336a8.79 8.79 0 0 1-3.622-.762 9.148 9.148 0 0 1-2.977-2.108c-.845-.896-1.512-1.957-2-3.182-.488-1.225-.733-2.57-.733-4.035 0-1.464.245-2.81.732-4.035.49-1.225 1.156-2.286 2.001-3.183a9.163 9.163 0 0 1 2.977-2.107 8.806 8.806 0 0 1 3.622-.762M143.517 18.83c0 1.703.49 3.063 1.467 4.08.977 1.016 2.192 1.523 3.644 1.523 1.45 0 2.665-.507 3.643-1.524.978-1.016 1.466-2.376 1.466-4.08 0-1.703-.488-3.063-1.466-4.08-.978-1.015-2.193-1.524-3.643-1.524-1.452 0-2.667.509-3.644 1.524-.978 1.017-1.467 2.377-1.467 4.08m15.33 0c0 1.465-.274 2.832-.821 4.103a10.954 10.954 0 0 1-2.222 3.34 10.51 10.51 0 0 1-3.244 2.263 9.461 9.461 0 0 1-3.932.83 9.463 9.463 0 0 1-3.933-.83 10.494 10.494 0 0 1-3.243-2.264 10.917 10.917 0 0 1-2.222-3.34c-.548-1.27-.823-2.637-.823-4.102 0-1.464.275-2.832.823-4.102a10.93 10.93 0 0 1 2.222-3.34 10.512 10.512 0 0 1 3.243-2.263 9.479 9.479 0 0 1 3.933-.83c1.391 0 2.703.277 3.932.83a10.528 10.528 0 0 1 3.244 2.263c.933.957 1.673 2.07 2.222 3.34.547 1.27.821 2.638.821 4.102"/>
        <path d="M19.603 34.357H11.08c-1.412 0-2.557 1.155-2.557 2.58 0 1.424 1.145 2.579 2.557 2.579h8.523c1.412 0 2.556-1.155 2.556-2.58 0-1.424-1.144-2.58-2.556-2.58"/>
    </g>
</svg>
