<svg xmlns="http://www.w3.org/2000/svg" width="240" height="48" viewBox="0 0 240 48">
    <g fill="none" fill-rule="evenodd">
        <path fill="#1774E6" d="M48 24c0 13.255-10.745 24-24 24S0 37.255 0 24h48z"/>
        <path fill="#49DEF2" d="M40 24.001c0 8.837-7.163 16-16 16s-16-7.163-16-16C8 15.165 15.163 0 24 0s16 15.165 16 24.001"/>
        <path fill="#FFF" d="M32 24a8 8 0 1 1-16 0 8 8 0 0 1 16 0"/>
        <g fill="#051A33">
            <path d="M85.125 32.734H80.79v-10.31c0-1.522-.677-2.604-2.44-2.604-1.524 0-2.777 1.014-3.387 1.893v11.021h-4.336v-10.31c0-1.522-.678-2.604-2.44-2.604-1.49 0-2.743 1.014-3.387 1.893v11.021h-4.303V16.406H64.8v2.096C65.51 17.555 67.645 16 70.152 16c2.405 0 3.963 1.116 4.54 2.941C75.64 17.487 77.807 16 80.314 16c3.015 0 4.81 1.589 4.81 4.936v11.798zm3.721 6.356l.61-3.82c.373.168.949.27 1.355.27 1.118 0 1.864-.304 2.27-1.183l.61-1.42-6.64-16.531h4.607l4.269 11.359 4.302-11.36h4.608l-7.69 19c-1.22 3.076-3.388 3.887-6.2 3.955-.474 0-1.592-.101-2.1-.27zm144.41-5.984c-1.49 0-2.744-1.25-2.744-2.738s1.253-2.739 2.744-2.739c1.49 0 2.744 1.251 2.744 2.739 0 1.487-1.253 2.738-2.744 2.738zm-15.273 6.254c-2.772 0-4.97-.642-7.032-2.434l1.927-3.076c1.319 1.42 3.077 1.994 5.105 1.994 2.063 0 4.531-.879 4.531-4.192v-1.589c-1.285 1.623-3.043 2.536-5.071 2.536-4.058 0-7.202-2.84-7.202-8.283 0-5.341 3.077-8.316 7.202-8.316 1.96 0 3.752.811 5.071 2.502v-2.096h4.294v15.246c0 6.187-4.801 7.708-8.825 7.708zm.846-10.547c1.386 0 2.941-.812 3.685-1.86v-5.307c-.744-1.048-2.299-1.826-3.685-1.826-2.468 0-4.159 1.69-4.159 4.496 0 2.806 1.69 4.497 4.159 4.497zm-20.62 10.547c-2.772 0-4.97-.642-7.032-2.434l1.928-3.076c1.318 1.42 3.076 1.994 5.105 1.994 2.062 0 4.53-.879 4.53-4.192v-1.589c-1.284 1.623-3.042 2.536-5.071 2.536-4.057 0-7.202-2.84-7.202-8.283 0-5.341 3.077-8.316 7.202-8.316 1.961 0 3.753.811 5.072 2.502v-2.096h4.293v15.246c0 6.187-4.8 7.708-8.824 7.708zm.846-10.547c1.386 0 2.942-.812 3.686-1.86v-5.307c-.744-1.048-2.3-1.826-3.686-1.826-2.468 0-4.158 1.69-4.158 4.496 0 2.806 1.69 4.497 4.158 4.497zm-18.549 4.36c-4.982 0-8.743-3.353-8.743-8.603 0-4.742 3.524-8.57 8.472-8.57 4.914 0 8.202 3.658 8.202 8.976v1.016H176.27c.305 1.999 1.932 3.659 4.71 3.659 1.39 0 3.288-.576 4.339-1.592l1.931 2.845c-1.626 1.49-4.202 2.27-6.744 2.27zm3.796-10.161c-.136-1.559-1.22-3.49-4.067-3.49-2.677 0-3.83 1.864-3.999 3.49h8.066zm-62.134 9.735h-4.339v-9.88c0-2.266-1.186-3.044-3.017-3.044-1.695 0-2.983.947-3.73 1.895v11.029h-4.305V16.406h4.306v2.098c1.05-1.218 3.085-2.504 5.729-2.504 3.627 0 5.356 2.03 5.356 5.21v11.537zm28.907.426c-2.845 0-5.588-.948-7.316-2.54l1.863-3.116c1.22 1.151 3.624 2.27 5.657 2.27 1.863 0 2.743-.712 2.743-1.728 0-2.676-9.687-.475-9.687-6.91 0-2.744 2.37-5.149 6.706-5.149 2.744 0 4.946.948 6.572 2.236l-1.728 3.048c-.982-1.016-2.845-1.897-4.844-1.897-1.558 0-2.574.678-2.574 1.592 0 2.405 9.721.373 9.721 6.978 0 3.015-2.574 5.216-7.113 5.216zm15.71 0c-3.014 0-4.605-1.557-4.605-4.502v-8.498h-2.709v-3.758h2.709v-4.468h4.3v4.468h3.318v3.758h-3.318v7.347c0 1.05.541 1.828 1.49 1.828.643 0 1.252-.237 1.489-.508l.914 3.284c-.643.575-1.794 1.05-3.589 1.05zm-32.666 0c-4.982 0-8.744-3.353-8.744-8.603 0-4.742 3.525-8.57 8.473-8.57 4.914 0 8.2 3.658 8.2 8.976v1.016h-12.166c.305 1.999 1.932 3.659 4.711 3.659 1.39 0 3.287-.576 4.338-1.592l1.932 2.845c-1.627 1.49-4.203 2.27-6.744 2.27zm3.795-10.161c-.135-1.559-1.22-3.49-4.066-3.49-2.678 0-3.83 1.864-4 3.49h8.066z"/>
        </g>
    </g>
</svg>
