<svg xmlns="http://www.w3.org/2000/svg" width="113" height="28" viewBox="0 0 113 28">
    <g fill="none" fill-rule="evenodd">
        <path fill="#F7CA3D" d="M15.953 8.575a1.189 1.189 0 0 1-1.682 0 4.83 4.83 0 0 0-3.436-1.423 4.83 4.83 0 0 0-3.437 1.423 4.828 4.828 0 0 0-1.423 3.436 1.19 1.19 0 1 1-2.378 0 7.19 7.19 0 0 1 2.12-5.117 7.191 7.191 0 0 1 5.118-2.12 7.19 7.19 0 0 1 5.118 2.12 1.189 1.189 0 0 1 0 1.681m0 8.554a7.19 7.19 0 0 1-5.118 2.12 7.19 7.19 0 0 1-5.118-2.12 1.19 1.19 0 0 1 1.681-1.682 4.827 4.827 0 0 0 3.437 1.424 4.828 4.828 0 0 0 3.436-1.424 1.19 1.19 0 0 1 1.682 1.682M10.834 1.177c5.985 0 10.836 4.85 10.836 10.834s-4.851 10.835-10.836 10.835C4.851 22.846 0 17.996 0 12.01 0 6.028 4.85 1.177 10.834 1.177zm2.954 26.484H7.882a1.862 1.862 0 1 1 0-3.724h5.906a1.862 1.862 0 1 1 0 3.724z"/>
        <path fill="#363636" d="M40.322 15.063a7.153 7.153 0 0 1-.847 2.056A7.412 7.412 0 0 1 38 18.876 6.994 6.994 0 0 1 35.99 20.1a6.414 6.414 0 0 1-2.416.455 6.741 6.741 0 0 1-2.777-.58 7.418 7.418 0 0 1-2.291-1.585 7.642 7.642 0 0 1-1.57-2.338 7.117 7.117 0 0 1-.58-2.872c0-1.024.193-1.981.58-2.87.387-.89.91-1.67 1.57-2.34a7.428 7.428 0 0 1 2.29-1.584 6.742 6.742 0 0 1 2.778-.58c.858 0 1.663.152 2.416.455A6.994 6.994 0 0 1 38 7.485a7.412 7.412 0 0 1 1.475 1.757c.397.66.68 1.344.847 2.056h-3.609a3.316 3.316 0 0 0-.69-1.005 4.36 4.36 0 0 0-.973-.706c-.398-.22-.89-.33-1.475-.33-1.025 0-1.883.356-2.573 1.068-.691.711-1.036 1.663-1.036 2.855 0 1.193.345 2.145 1.036 2.856.69.712 1.548 1.067 2.573 1.067.586 0 1.077-.104 1.475-.314.397-.209.722-.44.973-.69.292-.293.523-.638.69-1.036h3.61zM44.088 13.18c0 1.193.345 2.145 1.035 2.856.69.712 1.549 1.067 2.574 1.067s1.882-.355 2.573-1.067c.69-.711 1.035-1.663 1.035-2.856 0-1.192-.344-2.144-1.035-2.856-.69-.71-1.548-1.066-2.573-1.066s-1.883.356-2.574 1.066c-.69.712-1.035 1.664-1.035 2.856m10.827 0a7.12 7.12 0 0 1-.581 2.872 7.648 7.648 0 0 1-1.569 2.338 7.424 7.424 0 0 1-2.291 1.584 6.733 6.733 0 0 1-2.777.581c-.984 0-1.91-.193-2.778-.58a7.413 7.413 0 0 1-2.29-1.585 7.65 7.65 0 0 1-1.57-2.338 7.107 7.107 0 0 1-.58-2.872c0-1.025.193-1.982.58-2.871a7.659 7.659 0 0 1 1.57-2.338 7.425 7.425 0 0 1 2.29-1.584 6.745 6.745 0 0 1 2.778-.581c.983 0 1.909.194 2.777.58a7.437 7.437 0 0 1 2.291 1.585 7.657 7.657 0 0 1 1.569 2.338c.387.89.58 1.846.58 2.871M64.643 6.104c.523.2.951.413 1.287.643.376.272.679.586.91.942.334-.356.721-.67 1.16-.942.377-.23.826-.444 1.35-.643a4.834 4.834 0 0 1 1.726-.298c1.57 0 2.824.502 3.766 1.506.941 1.004 1.412 2.49 1.412 4.456v8.63h-3.609v-8.316c0-.879-.235-1.569-.706-2.071-.47-.502-1.02-.753-1.647-.753-.628 0-1.178.25-1.648.753-.47.502-.706 1.192-.706 2.071v8.316h-3.61v-8.316c0-.879-.234-1.569-.705-2.071-.471-.502-1.02-.753-1.648-.753-.627 0-1.177.25-1.648.753-.47.502-.705 1.192-.705 2.071v8.316h-3.61V5.963h2.668l.628 1.411c.293-.292.617-.553.973-.784a6.247 6.247 0 0 1 1.067-.533 3.775 3.775 0 0 1 1.412-.251c.732 0 1.36.1 1.883.298zM77.98 20.399h3.61V5.963h-3.61v14.436zm1.883-16.32c-.545 0-1.02-.203-1.428-.611-.408-.408-.612-.884-.612-1.428 0-.544.204-1.02.612-1.428.408-.408.883-.612 1.428-.612.544 0 1.02.204 1.427.612.409.408.613.884.613 1.428 0 .544-.204 1.02-.613 1.428-.407.408-.883.612-1.427.612zM86.296 12.867c0 .501.089.972.267 1.412a3.52 3.52 0 0 0 1.836 1.914c.418.189.868.283 1.349.283.46 0 .9-.094 1.318-.283a3.516 3.516 0 0 0 1.098-.77c.314-.323.565-.705.753-1.144.189-.44.283-.91.283-1.412 0-.502-.094-.973-.283-1.413-.188-.439-.439-.82-.753-1.145a3.527 3.527 0 0 0-1.098-.769 3.18 3.18 0 0 0-1.318-.283 3.25 3.25 0 0 0-1.35.283 3.51 3.51 0 0 0-1.835 1.914c-.178.44-.267.91-.267 1.413m2.981-7.061c.628 0 1.192.084 1.695.25.502.168.93.346 1.286.534.397.23.764.492 1.099.785l.627-1.412h2.668v13.494c0 1.883-.602 3.4-1.805 4.55-1.203 1.15-2.902 1.726-5.1 1.726-1.338 0-2.42-.24-3.247-.722-.827-.481-1.48-1.025-1.962-1.632a7.208 7.208 0 0 1-1.224-2.353h3.61c.146.271.345.512.596.722.23.167.523.324.879.47.355.146.805.22 1.349.22 1.025 0 1.83-.278 2.416-.832.585-.554.88-1.27.88-2.15v-1.098a5.37 5.37 0 0 1-1.005.785c-.335.21-.733.393-1.193.55-.46.156-.983.235-1.569.235-.9 0-1.752-.178-2.558-.534a6.46 6.46 0 0 1-2.102-1.475 6.973 6.973 0 0 1-1.413-2.228c-.344-.857-.517-1.8-.517-2.824 0-1.025.173-1.967.517-2.825a6.98 6.98 0 0 1 1.413-2.228A6.471 6.471 0 0 1 86.72 6.34a6.266 6.266 0 0 1 2.558-.533M101.36 13.18c0 1.193.345 2.145 1.035 2.856.69.712 1.548 1.067 2.573 1.067s1.883-.355 2.573-1.067c.691-.711 1.036-1.663 1.036-2.856 0-1.192-.345-2.144-1.036-2.856-.69-.71-1.548-1.066-2.573-1.066s-1.883.356-2.573 1.066c-.69.712-1.036 1.664-1.036 2.856m10.827 0a7.131 7.131 0 0 1-.58 2.872 7.663 7.663 0 0 1-1.57 2.338 7.424 7.424 0 0 1-2.29 1.584 6.733 6.733 0 0 1-2.778.581c-.983 0-1.91-.193-2.777-.58a7.413 7.413 0 0 1-2.29-1.585 7.638 7.638 0 0 1-1.57-2.338 7.12 7.12 0 0 1-.58-2.872 7.12 7.12 0 0 1 .58-2.871A7.646 7.646 0 0 1 99.9 7.97a7.425 7.425 0 0 1 2.29-1.584 6.745 6.745 0 0 1 2.777-.581c.983 0 1.91.194 2.777.58a7.437 7.437 0 0 1 2.291 1.585 7.672 7.672 0 0 1 1.57 2.338c.386.89.58 1.846.58 2.871"/>
        <path fill="#F7CA3D" d="M13.844 24.05H7.825a1.806 1.806 0 0 0 0 3.611h6.02a1.806 1.806 0 1 0 0-3.611"/>
    </g>
</svg>
