<svg id="Layer_1" data-name="Layer 1" xmlns="http://www.w3.org/2000/svg" xmlns:xlink="http://www.w3.org/1999/xlink" viewBox="0 0 136.79 65.79"><defs><style>.cls-1,.cls-5,.cls-7{fill:none;}.cls-2{fill:#ffdf54;}.cls-3{clip-path:url(#clip-path);}.cls-4{fill:url(#radial-gradient);}.cls-5,.cls-7{stroke:#666769;}.cls-5{stroke-linecap:round;}.cls-6{fill:#ffda00;}</style><clipPath id="clip-path"><path class="cls-1" d="M81,31.34h0l0,0ZM82.54,31c-.72.16-1.34.31-1.49.31,1.84.65,4.28.82,4.31-.35,0-.2-.29-.28-.68-.28a11.71,11.71,0,0,0-2.13.31m-3.48-1.27c-.06.57.83,1.17,1.95,1.57l-1.58-2a.61.61,0,0,0-.37.46m.27-.58.09.12a9.25,9.25,0,0,1,3.44-.37h.77c.68,0,1.56,0,1.9,0-1-.36-3.15-.88-4.19-1.24l-.41-.13a2.94,2.94,0,0,1-1.61,1.59M79.55,27a4.92,4.92,0,0,0,1.39.58,2,2,0,0,0,.08-.33,5.14,5.14,0,0,0,0-.72c-.71.1-1.39.25-1.51.47M77.17,14.35a6.92,6.92,0,0,0,.72,3.71,15.24,15.24,0,0,1,1.63,2.61,9.68,9.68,0,0,0,.57,1.2,15.17,15.17,0,0,1,1,4.66c.69-.1,1.41-.16,1.69-.2a3.59,3.59,0,0,1,1,.22c.53.16,1.1.31,1.31.15-.49-.55-2-.81-2.33-1.56a6.6,6.6,0,0,1,2.25.21,7,7,0,0,0,2.31,0c.42-.34.15-.58,0-1.12A10.39,10.39,0,0,1,87,20.29a8,8,0,0,1,1.56-3.56c.4-.58,1.68-2.23,1.62-3.55-.08-1.84-.42-2.45-1.49-3.31A6.05,6.05,0,0,0,84.83,8.6c-3.45,0-7.15,2.37-7.66,5.75"/></clipPath><radialGradient id="radial-gradient" cx="403.29" cy="-167.93" r="1" gradientTransform="matrix(12.13, 0, 0, -20.96, -4807.05, -3499.9)" gradientUnits="userSpaceOnUse"><stop offset="0" stop-color="#ffda00"/><stop offset="0.02" stop-color="#ffda00"/><stop offset="0.18" stop-color="#ffe341"/><stop offset="0.34" stop-color="#ffec7a"/><stop offset="0.5" stop-color="#fff3aa"/><stop offset="0.65" stop-color="#fff8ce"/><stop offset="0.78" stop-color="#fffce9"/><stop offset="0.9" stop-color="#fffef8"/><stop offset="1" stop-color="#fffffe"/></radialGradient></defs><title>Artboard 11</title><path class="cls-2" d="M130.32,52.38a7.62,7.62,0,0,1-10.68,0q-1.88-2.2-1.88-6.47t1.88-6.55a7.74,7.74,0,0,1,10.69,0q1.87,2.14,1.87,6.55t-1.88,6.51M133.57,37a13.27,13.27,0,0,0-17.15,0q-3.26,3.15-3.26,8.83,0,5.52,3.16,8.74T125,57.83a11.8,11.8,0,0,0,8.57-3.12q3.22-3.12,3.22-8.85T133.57,37M91.37,60.84v4a32.29,32.29,0,0,0,3.78.71,30.84,30.84,0,0,0,4,.26q6,0,9-2.7T111,54.62V34.51h-4.19l-.26,1a16.2,16.2,0,0,0-3-1.19,13.48,13.48,0,0,0-3.56-.42,11.52,11.52,0,0,0-4.21.79,10.31,10.31,0,0,0-3.53,2.25,11.19,11.19,0,0,0-2.49,3.71,12.75,12.75,0,0,0-.92,5q0,5.4,2.68,8.29a9.34,9.34,0,0,0,7.2,2.88,12.61,12.61,0,0,0,4.33-.64,14.29,14.29,0,0,0,3.53-2v2a9.27,9.27,0,0,1-.31,2.5,4.73,4.73,0,0,1-1.07,1.93,5.36,5.36,0,0,1-2.24,1.3,11.34,11.34,0,0,1-3.49.47,14.83,14.83,0,0,1-2.27-.16q-1-.16-2.27-.43t-2-.52l-1.33-.44Zm11.9-8.14a11.62,11.62,0,0,1-3.56.59q-3.32,0-4.79-2a9.47,9.47,0,0,1-1.48-5.75,8.77,8.77,0,0,1,1.94-6.11,6.84,6.84,0,0,1,5.33-2.13,13.71,13.71,0,0,1,2.81.29,17.22,17.22,0,0,1,3.07,1V51a11.79,11.79,0,0,1-3.3,1.64M86.06,34.51H81.61V57.2h4.45ZM78.18,57.2V42.27a12.17,12.17,0,0,0-.53-3.88,7.07,7.07,0,0,0-1.5-2.58,5.57,5.57,0,0,0-2.22-1.47,8.27,8.27,0,0,0-2.82-.46,7.52,7.52,0,0,0-3.79,1,15.94,15.94,0,0,0-3.57,2.92,5.8,5.8,0,0,0-2.51-3,7.66,7.66,0,0,0-3.78-.91,7.25,7.25,0,0,0-3.43.82A14.56,14.56,0,0,0,50.89,37V34.51h-4V57.2h4V40.26a14.74,14.74,0,0,1,2.8-2,5.85,5.85,0,0,1,2.75-.77,5,5,0,0,1,2.15.39,2.7,2.7,0,0,1,1.23,1.2,5.56,5.56,0,0,1,.54,2.08q.13,1.33.13,2.89V57.2h4V42.27q0-.65,0-1.13c0-.32,0-.59-.05-.82a14,14,0,0,1,3-2.08,6,6,0,0,1,2.68-.72,5,5,0,0,1,2.15.39,2.7,2.7,0,0,1,1.23,1.2A5.56,5.56,0,0,1,74,41.19q.13,1.33.13,2.89V57.2ZM39,52.38a6.67,6.67,0,0,1-5.32,2.16,6.66,6.66,0,0,1-5.36-2.2q-1.88-2.2-1.88-6.47t1.88-6.55a6.76,6.76,0,0,1,5.36-2.14A6.69,6.69,0,0,1,39,39.32q1.87,2.14,1.87,6.55T39,52.38M42.25,37a11.76,11.76,0,0,0-8.57-3.14A11.82,11.82,0,0,0,25.1,37q-3.26,3.15-3.26,8.83,0,5.52,3.16,8.74t8.68,3.22a11.8,11.8,0,0,0,8.57-3.12q3.22-3.12,3.22-8.85T42.25,37M14.66,57.56q.9-.15,2-.44a13.74,13.74,0,0,0,1.8-.56l1.66-.64V51.64h-.26a13.23,13.23,0,0,1-3.48,2,11.22,11.22,0,0,1-4.14.77,7.19,7.19,0,0,1-5.62-2.24,9,9,0,0,1-2-6.27,9,9,0,0,1,2.1-6.35,7.24,7.24,0,0,1,5.55-2.24,10.19,10.19,0,0,1,2.42.31,13.24,13.24,0,0,1,2.18.71,16.54,16.54,0,0,1,1.81.91q.75.45,1.22.79h.26V35.73a24.84,24.84,0,0,0-3.61-1.22,16.62,16.62,0,0,0-4.2-.53,15.29,15.29,0,0,0-5,.8,10.55,10.55,0,0,0-3.89,2.29,10.91,10.91,0,0,0-2.5,3.65A13,13,0,0,0,0,45.89a13.89,13.89,0,0,0,.9,5.23A9.78,9.78,0,0,0,3.43,54.8,10.55,10.55,0,0,0,7.34,57a16.44,16.44,0,0,0,5,.72,14.33,14.33,0,0,0,2.32-.15"/><g class="cls-3"><rect class="cls-4" x="76.97" y="8.6" width="13.25" height="23.56"/></g><path class="cls-5" d="M79.33,29.18A2.7,2.7,0,0,0,81,27.25a13.57,13.57,0,0,0-.94-5.38,9.69,9.69,0,0,1-.57-1.2,15.28,15.28,0,0,0-1.62-2.61,6.91,6.91,0,0,1-.72-3.71c.71-4.76,7.75-7.51,11.5-4.49,1.07.86,1.4,1.46,1.49,3.31.06,1.32-1.21,3-1.62,3.55A7.94,7.94,0,0,0,87,20.29a10.39,10.39,0,0,0,.27,3.95c.17.54.44.78,0,1.12a7,7,0,0,1-2.31,0,6.6,6.6,0,0,0-2.25-.21c.35.75,1.83,1,2.33,1.56-.36.29-1.87-.42-2.3-.37s-3,.24-3.19.67a7,7,0,0,0,1.8.71c1,.35,3.16.87,4.19,1.24-.5,0-2.16,0-2.67,0s-3.72-.16-3.81.83c-.15,1.52,6.25,3.14,6.3,1.24-.07-.82-4.25.45-4.34.34"/><path class="cls-6" d="M83.52,5.54c1.12-1.29,1-3.46,1.44-5"/><path class="cls-5" d="M83.52,5.54c1.12-1.29,1-3.46,1.44-5"/><path class="cls-6" d="M89.08,7.42c.45-.31.89-.44,1.37-.8S92,4.95,92.68,5"/><path class="cls-5" d="M89.08,7.42c.45-.31.89-.44,1.37-.8S92,4.95,92.68,5"/><path class="cls-6" d="M91.72,14.22a4.29,4.29,0,0,0,2.59-.45"/><path class="cls-5" d="M91.72,14.22a4.29,4.29,0,0,0,2.59-.45"/><path class="cls-6" d="M75.53,12.76A4.28,4.28,0,0,1,73,11.88"/><path class="cls-5" d="M75.53,12.76A4.28,4.28,0,0,1,73,11.88"/><path class="cls-6" d="M78.36,7.24c-.45-.31-.89-.44-1.37-.8s-1.58-1.68-2.23-1.6"/><path class="cls-5" d="M78.36,7.24c-.45-.31-.89-.44-1.37-.8s-1.58-1.68-2.23-1.6"/><path class="cls-6" d="M82.06,14v-.1c-.35-.09-1,.26-.76.67a.79.79,0,0,0,.55-.38"/><path class="cls-7" d="M82.06,14v-.1c-.35-.09-1,.26-.76.67a.79.79,0,0,0,.55-.38"/><path class="cls-6" d="M85.61,13.43c-.34-.07-.48.44-.25.62s.87,0,.62-.37h-.1"/><path class="cls-7" d="M85.61,13.43c-.34-.07-.48.44-.25.62s.87,0,.62-.37h-.1"/><path class="cls-5" d="M81.28,16.71a3.82,3.82,0,0,0,0,1,2,2,0,0,0,1.52,1.1,3.67,3.67,0,0,0,.89-.26c.39-.13.8-.26,1.18-.42s1.49-.75,1.36-1.27"/></svg>