<svg id="Layer_1" data-name="Layer 1" xmlns="http://www.w3.org/2000/svg" xmlns:xlink="http://www.w3.org/1999/xlink" viewBox="0 0 22.31 32.36"><defs><style>.cls-1,.cls-4,.cls-6{fill:none;}.cls-2{clip-path:url(#clip-path);}.cls-3{fill:url(#radial-gradient);}.cls-4,.cls-6{stroke:#666769;}.cls-4{stroke-linecap:round;}.cls-5{fill:#ffda00;}</style><clipPath id="clip-path"><path class="cls-1" d="M8.52,31.34h0l0,0ZM10,31c-.72.16-1.34.31-1.49.31,1.84.65,4.28.82,4.31-.35,0-.2-.29-.28-.68-.28A11.71,11.71,0,0,0,10,31M6.56,29.76c-.06.57.83,1.17,1.95,1.57l-1.58-2a.61.61,0,0,0-.37.46m.27-.58.09.12a9.25,9.25,0,0,1,3.44-.37h.77c.68,0,1.56,0,1.9,0-1-.36-3.15-.88-4.19-1.24l-.41-.13a2.94,2.94,0,0,1-1.61,1.59M7.06,27a4.92,4.92,0,0,0,1.39.58,2,2,0,0,0,.08-.33,5.14,5.14,0,0,0,0-.72c-.71.1-1.39.25-1.51.47M4.67,14.35a6.92,6.92,0,0,0,.72,3.71A15.24,15.24,0,0,1,7,20.67a9.68,9.68,0,0,0,.57,1.2,15.17,15.17,0,0,1,1,4.66c.69-.1,1.41-.16,1.69-.2a3.59,3.59,0,0,1,1,.22c.53.16,1.1.31,1.31.15-.49-.55-2-.81-2.33-1.56a6.6,6.6,0,0,1,2.25.21,7,7,0,0,0,2.31,0c.42-.34.15-.58,0-1.12a10.39,10.39,0,0,1-.27-3.95A8,8,0,0,1,16,16.73c.4-.58,1.68-2.23,1.62-3.55-.08-1.84-.42-2.45-1.49-3.31A6.05,6.05,0,0,0,12.33,8.6C8.88,8.6,5.18,11,4.67,14.35"/></clipPath><radialGradient id="radial-gradient" cx="362.36" cy="-278.26" r="1" gradientTransform="matrix(12.13, 0, 0, -20.96, -4383.24, -5812.73)" gradientUnits="userSpaceOnUse"><stop offset="0" stop-color="#ffda00"/><stop offset="0.02" stop-color="#ffda00"/><stop offset="0.18" stop-color="#ffe341"/><stop offset="0.34" stop-color="#ffec7a"/><stop offset="0.5" stop-color="#fff3aa"/><stop offset="0.65" stop-color="#fff8ce"/><stop offset="0.78" stop-color="#fffce9"/><stop offset="0.9" stop-color="#fffef8"/><stop offset="1" stop-color="#fffffe"/></radialGradient></defs><title>Artboard 12</title><g class="cls-2"><rect class="cls-3" x="4.48" y="8.6" width="13.25" height="23.56"/></g><path class="cls-4" d="M6.84,29.18a2.7,2.7,0,0,0,1.68-1.92,13.57,13.57,0,0,0-.94-5.38A9.69,9.69,0,0,1,7,20.67a15.28,15.28,0,0,0-1.62-2.61,6.91,6.91,0,0,1-.72-3.71c.71-4.76,7.75-7.51,11.5-4.49,1.07.86,1.4,1.46,1.49,3.31.06,1.32-1.21,3-1.62,3.55a7.94,7.94,0,0,0-1.56,3.56,10.39,10.39,0,0,0,.27,3.95c.17.54.44.78,0,1.12a7,7,0,0,1-2.31,0,6.6,6.6,0,0,0-2.25-.21c.35.75,1.83,1,2.33,1.56-.36.29-1.87-.42-2.3-.37s-3,.24-3.19.67a7,7,0,0,0,1.8.71c1,.35,3.16.87,4.19,1.24-.5,0-2.16,0-2.67,0s-3.72-.16-3.81.83c-.15,1.52,6.25,3.14,6.3,1.24-.07-.82-4.25.45-4.34.34"/><path class="cls-5" d="M11,5.54c1.12-1.29,1-3.46,1.44-5"/><path class="cls-4" d="M11,5.54c1.12-1.29,1-3.46,1.44-5"/><path class="cls-5" d="M16.59,7.42c.45-.31.89-.44,1.37-.8S19.54,4.95,20.19,5"/><path class="cls-4" d="M16.59,7.42c.45-.31.89-.44,1.37-.8S19.54,4.95,20.19,5"/><path class="cls-5" d="M19.22,14.22a4.29,4.29,0,0,0,2.59-.45"/><path class="cls-4" d="M19.22,14.22a4.29,4.29,0,0,0,2.59-.45"/><path class="cls-5" d="M3,12.76A4.28,4.28,0,0,1,.5,11.88"/><path class="cls-4" d="M3,12.76A4.28,4.28,0,0,1,.5,11.88"/><path class="cls-5" d="M5.87,7.24C5.42,6.93,5,6.8,4.5,6.44S2.92,4.77,2.27,4.84"/><path class="cls-4" d="M5.87,7.24C5.42,6.93,5,6.8,4.5,6.44S2.92,4.77,2.27,4.84"/><path class="cls-5" d="M9.56,14v-.1c-.35-.09-1,.26-.76.67a.79.79,0,0,0,.55-.38"/><path class="cls-6" d="M9.56,14v-.1c-.35-.09-1,.26-.76.67a.79.79,0,0,0,.55-.38"/><path class="cls-5" d="M13.12,13.43c-.34-.07-.48.44-.25.62s.87,0,.62-.37h-.1"/><path class="cls-6" d="M13.12,13.43c-.34-.07-.48.44-.25.62s.87,0,.62-.37h-.1"/><path class="cls-4" d="M8.78,16.71a3.82,3.82,0,0,0,0,1,2,2,0,0,0,1.52,1.1,3.67,3.67,0,0,0,.89-.26c.39-.13.8-.26,1.18-.42s1.49-.75,1.36-1.27"/></svg>