<svg xmlns="http://www.w3.org/2000/svg" width="160" height="38" viewBox="0 0 160 38">
    <g fill="#FFF" fill-rule="nonzero">
        <path d="M14 32.215c-7.732 0-14-6.342-14-14.166C0 10.225 6.268 3.882 14 3.882s14 6.343 14 14.167-6.268 14.166-14 14.166zm-6.977-7.119c3.827 3.827 10.07 3.79 13.942-.082a1.408 1.408 0 0 0 .012-1.992 1.408 1.408 0 0 0-1.992.012c-2.766 2.766-7.225 2.792-9.958.059a1.408 1.408 0 0 0-1.992.011 1.408 1.408 0 0 0-.012 1.992zm3.377 8.536h7.2a2 2 0 0 1 2 2v.25a2 2 0 0 1-2 2h-7.2a2 2 0 0 1-2-2v-.25a2 2 0 0 1 2-2zM55.338 22.54a10.17 10.17 0 0 1-1.234 2.956 10.682 10.682 0 0 1-2.148 2.527 10.2 10.2 0 0 1-2.925 1.76 9.436 9.436 0 0 1-3.52.654 9.93 9.93 0 0 1-4.044-.835 10.823 10.823 0 0 1-3.336-2.279 10.997 10.997 0 0 1-2.285-3.361c-.564-1.279-.846-2.655-.846-4.129 0-1.474.282-2.85.846-4.128a10.997 10.997 0 0 1 2.285-3.362 10.823 10.823 0 0 1 3.336-2.279 9.93 9.93 0 0 1 4.045-.834c1.25 0 2.422.218 3.52.654a10.2 10.2 0 0 1 2.924 1.76c.853.737 1.57 1.579 2.148 2.526.58.948.99 1.933 1.234 2.956h-5.256a4.758 4.758 0 0 0-1.005-1.444c-.366-.361-.838-.7-1.417-1.015-.579-.316-1.295-.474-2.148-.474-1.493 0-2.742.511-3.748 1.534-1.005 1.023-1.508 2.392-1.508 4.106 0 1.715.503 3.084 1.508 4.106 1.006 1.023 2.255 1.534 3.748 1.534.853 0 1.569-.15 2.148-.45.579-.302 1.051-.632 1.417-.993a4.61 4.61 0 0 0 1.005-1.49h5.256zm5.485-2.707c0 1.715.502 3.084 1.508 4.106 1.005 1.023 2.255 1.534 3.748 1.534 1.493 0 2.742-.51 3.747-1.534 1.006-1.022 1.509-2.391 1.509-4.106 0-1.714-.503-3.083-1.509-4.106-1.005-1.023-2.254-1.534-3.747-1.534-1.493 0-2.743.511-3.748 1.534-1.006 1.023-1.508 2.392-1.508 4.106zm15.767 0c0 1.474-.281 2.85-.845 4.129a10.997 10.997 0 0 1-2.285 3.361 10.823 10.823 0 0 1-3.337 2.28 9.93 9.93 0 0 1-4.044.834 9.93 9.93 0 0 1-4.045-.835 10.823 10.823 0 0 1-3.337-2.279 10.997 10.997 0 0 1-2.285-3.361c-.563-1.279-.845-2.655-.845-4.129 0-1.474.282-2.85.845-4.128a10.997 10.997 0 0 1 2.285-3.362 10.823 10.823 0 0 1 3.337-2.279 9.93 9.93 0 0 1 4.045-.834 9.93 9.93 0 0 1 4.044.834 10.823 10.823 0 0 1 3.337 2.279c.96.963 1.721 2.083 2.285 3.362.564 1.278.845 2.654.845 4.128zM88.016 9.23c1.067 0 1.98.142 2.743.428.761.286 1.386.594 1.874.925.548.391.99.842 1.325 1.354a8.303 8.303 0 0 1 1.691-1.354c.548-.33 1.204-.639 1.965-.925.762-.286 1.6-.428 2.514-.428 2.285 0 4.113.721 5.484 2.165 1.372 1.444 2.057 3.58 2.057 6.408V30.21h-5.256V18.254c0-1.263-.343-2.256-1.028-2.978-.686-.722-1.486-1.083-2.4-1.083-.914 0-1.714.36-2.4 1.083-.685.722-1.027 1.715-1.027 2.978V30.21h-5.256V18.254c0-1.263-.343-2.256-1.029-2.978-.685-.722-1.485-1.083-2.4-1.083-.913 0-1.713.36-2.399 1.083-.685.722-1.028 1.715-1.028 2.978V30.21H78.19V9.455h3.885l.914 2.03a8.596 8.596 0 0 1 1.417-1.127c.426-.271.944-.527 1.554-.767.61-.241 1.295-.361 2.056-.361zM115.44 30.21h-5.256V9.455h5.256v20.756zm-2.514-23.463c-.792 0-1.485-.293-2.08-.88-.594-.587-.89-1.271-.89-2.053s.296-1.467.89-2.053c.595-.587 1.288-.88 2.08-.88s1.485.293 2.08.88c.594.586.89 1.27.89 2.053 0 .782-.296 1.466-.89 2.053-.595.587-1.288.88-2.08.88zm13.711 2.482c.914 0 1.737.12 2.468.36.731.241 1.356.497 1.874.768.579.33 1.112.707 1.6 1.128l.914-2.03h3.885v19.402c0 2.707-.876 4.888-2.628 6.542-1.752 1.655-4.228 2.482-7.427 2.482-1.95 0-3.527-.346-4.73-1.038-1.204-.692-2.156-1.474-2.857-2.346a10.32 10.32 0 0 1-1.783-3.384h5.256c.214.39.503.737.869 1.037.335.241.762.467 1.28.677.517.21 1.173.316 1.965.316 1.493 0 2.666-.398 3.519-1.196.853-.797 1.28-1.827 1.28-3.09v-1.58a7.82 7.82 0 0 1-1.463 1.128c-.487.301-1.066.564-1.737.79-.67.226-1.432.338-2.285.338a9.22 9.22 0 0 1-3.725-.767 9.436 9.436 0 0 1-3.062-2.12 10.02 10.02 0 0 1-2.056-3.204c-.503-1.233-.755-2.587-.755-4.061 0-1.474.252-2.828.755-4.061a10.02 10.02 0 0 1 2.056-3.204 9.436 9.436 0 0 1 3.062-2.12 9.22 9.22 0 0 1 3.725-.767zm-4.342 10.152a5.3 5.3 0 0 0 .389 2.03 5.076 5.076 0 0 0 2.673 2.753c.61.27 1.265.406 1.966.406.67 0 1.31-.135 1.92-.406a5.14 5.14 0 0 0 1.599-1.106 5.397 5.397 0 0 0 1.097-1.647 5.044 5.044 0 0 0 .411-2.03c0-.722-.137-1.399-.411-2.03a5.397 5.397 0 0 0-1.097-1.647 5.14 5.14 0 0 0-1.6-1.106 4.676 4.676 0 0 0-1.92-.406c-.7 0-1.355.135-1.965.406a5.076 5.076 0 0 0-2.674 2.752 5.3 5.3 0 0 0-.388 2.031zm21.938.451c0 1.715.503 3.084 1.508 4.106 1.006 1.023 2.255 1.534 3.748 1.534 1.493 0 2.742-.51 3.748-1.534 1.005-1.022 1.508-2.391 1.508-4.106 0-1.714-.503-3.083-1.508-4.106-1.006-1.023-2.255-1.534-3.748-1.534-1.493 0-2.742.511-3.748 1.534-1.005 1.023-1.508 2.392-1.508 4.106zm15.768 0c0 1.474-.282 2.85-.846 4.129a10.997 10.997 0 0 1-2.285 3.361 10.823 10.823 0 0 1-3.336 2.28 9.93 9.93 0 0 1-4.045.834 9.93 9.93 0 0 1-4.045-.835 10.823 10.823 0 0 1-3.336-2.279 10.997 10.997 0 0 1-2.285-3.361c-.564-1.279-.846-2.655-.846-4.129 0-1.474.282-2.85.846-4.128a10.997 10.997 0 0 1 2.285-3.362 10.823 10.823 0 0 1 3.336-2.279 9.93 9.93 0 0 1 4.045-.834 9.93 9.93 0 0 1 4.045.834 10.823 10.823 0 0 1 3.336 2.279c.96.963 1.722 2.083 2.285 3.362.564 1.278.846 2.654.846 4.128z"/>
    </g>
</svg>
