<svg xmlns="http://www.w3.org/2000/svg" width="113" height="28" viewBox="0 0 113 28">
    <g fill="none" fill-rule="nonzero">
        <path fill="#F7CA3D" d="M10 22C4.477 22 0 17.523 0 12S4.477 2 10 2s10 4.477 10 10-4.477 10-10 10zm-4.95-5.05a7 7 0 0 0 9.9 0 1 1 0 0 0-1.414-1.414 5 5 0 0 1-7.072 0A1 1 0 1 0 5.05 16.95zM7.5 23h5a1.5 1.5 0 0 1 0 3h-5a1.5 1.5 0 0 1 0-3z"/>
        <path fill="#363636" d="M39.318 15.22a7.14 7.14 0 0 1-.869 2.076 7.51 7.51 0 0 1-1.512 1.776c-.6.518-1.287.93-2.06 1.237a6.654 6.654 0 0 1-2.477.46 7.001 7.001 0 0 1-2.847-.587 7.62 7.62 0 0 1-2.349-1.602 7.727 7.727 0 0 1-1.609-2.362 7.1 7.1 0 0 1-.595-2.9 7.1 7.1 0 0 1 .595-2.902 7.727 7.727 0 0 1 1.609-2.362 7.62 7.62 0 0 1 2.349-1.602 7.001 7.001 0 0 1 2.847-.586c.88 0 1.706.153 2.478.46a7.184 7.184 0 0 1 2.06 1.236 7.51 7.51 0 0 1 1.511 1.776 7.14 7.14 0 0 1 .87 2.077h-3.701a3.343 3.343 0 0 0-.708-1.015 4.434 4.434 0 0 0-.997-.713c-.408-.222-.912-.333-1.513-.333-1.05 0-1.93.359-2.638 1.078-.708.718-1.062 1.68-1.062 2.885 0 1.205.354 2.167 1.062 2.885.708.72 1.587 1.078 2.638 1.078.601 0 1.105-.105 1.513-.317.407-.211.74-.443.997-.697.3-.296.536-.645.708-1.046h3.7zm3.861-1.903c0 1.205.354 2.167 1.062 2.885.708.72 1.587 1.078 2.638 1.078s1.93-.359 2.639-1.078c.708-.718 1.062-1.68 1.062-2.885 0-1.205-.354-2.167-1.062-2.885-.708-.719-1.588-1.078-2.639-1.078-1.05 0-1.93.359-2.638 1.078-.708.718-1.062 1.68-1.062 2.885zm11.1 0a7.1 7.1 0 0 1-.595 2.901 7.727 7.727 0 0 1-1.608 2.362 7.62 7.62 0 0 1-2.35 1.602c-.89.39-1.838.586-2.847.586a7.001 7.001 0 0 1-2.847-.586 7.62 7.62 0 0 1-2.349-1.602 7.727 7.727 0 0 1-1.609-2.362 7.1 7.1 0 0 1-.595-2.9 7.1 7.1 0 0 1 .595-2.902 7.727 7.727 0 0 1 1.609-2.362 7.62 7.62 0 0 1 2.349-1.602 7.001 7.001 0 0 1 2.847-.586c1.009 0 1.958.195 2.848.586a7.62 7.62 0 0 1 2.349 1.602 7.727 7.727 0 0 1 1.608 2.362 7.1 7.1 0 0 1 .596 2.901zm8.045-7.451c.75 0 1.394.1 1.93.301.536.2.976.418 1.32.65.385.275.696.592.932.951.344-.36.74-.676 1.19-.95.387-.233.848-.45 1.384-.65a5.01 5.01 0 0 1 1.77-.302c1.609 0 2.896.507 3.861 1.522.965 1.014 1.448 2.515 1.448 4.502v8.72h-3.7v-8.403c0-.887-.241-1.585-.724-2.092-.483-.508-1.046-.761-1.69-.761-.643 0-1.206.253-1.689.76-.482.508-.723 1.206-.723 2.093v8.403h-3.7v-8.403c0-.887-.242-1.585-.725-2.092-.482-.508-1.045-.761-1.689-.761-.643 0-1.206.253-1.689.76-.483.508-.724 1.206-.724 2.093v8.403h-3.7V6.024h2.735l.643 1.427c.3-.296.633-.56.998-.792.3-.19.665-.37 1.094-.54a3.92 3.92 0 0 1 1.448-.253zM81.629 20.61h-3.7V6.024h3.7V20.61zm-1.77-16.488c-.557 0-1.045-.206-1.464-.618-.418-.413-.627-.893-.627-1.443s.209-1.03.627-1.443C78.814.206 79.302 0 79.86 0c.558 0 1.046.206 1.464.618.419.412.628.893.628 1.443s-.21 1.03-.628 1.443c-.418.412-.906.618-1.464.618zm9.653 1.744c.643 0 1.223.084 1.737.254.515.169.955.348 1.32.539.407.232.782.496 1.126.792l.643-1.427h2.735V19.66c0 1.902-.617 3.434-1.85 4.597C93.99 25.42 92.247 26 89.995 26c-1.373 0-2.483-.243-3.33-.73-.848-.485-1.518-1.035-2.012-1.648a7.247 7.247 0 0 1-1.254-2.378h3.7c.15.275.354.518.611.73.236.168.536.327.901.475.365.148.826.222 1.384.222 1.05 0 1.876-.28 2.477-.84.6-.56.9-1.285.9-2.172v-1.11c-.3.296-.643.56-1.029.792-.343.212-.75.397-1.222.555a5.04 5.04 0 0 1-1.61.238 6.643 6.643 0 0 1-4.778-2.03 7.04 7.04 0 0 1-1.447-2.25c-.354-.867-.531-1.818-.531-2.854s.177-1.987.53-2.854a7.04 7.04 0 0 1 1.449-2.25 6.643 6.643 0 0 1 4.778-2.03zM86.455 13c0 .507.091.983.274 1.427a3.566 3.566 0 0 0 1.882 1.934c.429.19.89.285 1.384.285.471 0 .922-.095 1.35-.285.43-.19.805-.45 1.127-.777.322-.327.58-.713.772-1.157.193-.444.29-.92.29-1.427s-.097-.983-.29-1.427a3.792 3.792 0 0 0-.772-1.157 3.618 3.618 0 0 0-1.126-.777 3.297 3.297 0 0 0-1.351-.285c-.494 0-.955.095-1.384.285a3.566 3.566 0 0 0-1.882 1.934c-.183.444-.274.92-.274 1.427zm15.444.317c0 1.205.354 2.167 1.062 2.885.708.72 1.588 1.078 2.639 1.078 1.05 0 1.93-.359 2.638-1.078.708-.718 1.062-1.68 1.062-2.885 0-1.205-.354-2.167-1.062-2.885-.708-.719-1.587-1.078-2.638-1.078s-1.93.359-2.639 1.078c-.708.718-1.062 1.68-1.062 2.885zm11.101 0a7.1 7.1 0 0 1-.595 2.901 7.727 7.727 0 0 1-1.609 2.362 7.62 7.62 0 0 1-2.349 1.602c-.89.39-1.84.586-2.847.586a7.001 7.001 0 0 1-2.848-.586 7.62 7.62 0 0 1-2.349-1.602 7.727 7.727 0 0 1-1.608-2.362 7.1 7.1 0 0 1-.596-2.9 7.1 7.1 0 0 1 .596-2.902 7.727 7.727 0 0 1 1.608-2.362 7.62 7.62 0 0 1 2.35-1.602 7.001 7.001 0 0 1 2.847-.586c1.008 0 1.957.195 2.847.586a7.62 7.62 0 0 1 2.349 1.602 7.727 7.727 0 0 1 1.609 2.362 7.1 7.1 0 0 1 .595 2.901z"/>
    </g>
</svg>
