<svg xmlns="http://www.w3.org/2000/svg" width="36" height="54" viewBox="0 0 36 54">
    <g fill="none" fill-rule="evenodd">
        <path fill="#D8D8D8" fill-opacity="0" fill-rule="nonzero" d="M-22-12h80v80h-80z"/>
        <path fill="#455185" d="M22.625 48L0 54V6l22.625-6a4 4 0 0 1 4 4v40a4 4 0 0 1-4 4"/>
        <path fill="#4590EB" d="M32 54H0V6h32a4 4 0 0 1 4 4v40a4 4 0 0 1-4 4"/>
        <path fill="#D1E3FA" d="M28 30.245c0 5.524-4.477 10-10 10s-10-4.476-10-10c0-5.523 4.477-10 10-10s10 4.477 10 10M24.6 48.862H11.4a1.4 1.4 0 0 1-1.4-1.4v-.2a1.4 1.4 0 0 1 1.4-1.4h13.2a1.4 1.4 0 0 1 1.4 1.4v.2a1.4 1.4 0 0 1-1.4 1.4M26.6 15.487H9.4a1.4 1.4 0 0 1-1.4-1.4v-.2a1.4 1.4 0 0 1 1.4-1.4h17.2a1.4 1.4 0 0 1 1.4 1.4v.2a1.4 1.4 0 0 1-1.4 1.4"/>
    </g>
</svg>
